<?xml version="1.0" encoding="utf-8"?>
<!-- Generator: Adobe Illustrator 27.5.0, SVG Export Plug-In . SVG Version: 6.00 Build 0)  -->
<svg version="1.1" id="Слой_2" xmlns="http://www.w3.org/2000/svg" xmlns:xlink="http://www.w3.org/1999/xlink" x="0px" y="0px"
	 viewBox="0 0 4000 2000" style="enable-background:new 0 0 4000 2000;" xml:space="preserve">
<rect style="fill:#FFFFFF;" width="4000" height="2000"/>
<g>
	<path style="fill:#EAF1F8;" d="M286.45,1728.032c0,0-193.638-614.518,122.957-822.205
		c305.337-200.301,605.192-24.61,714.97-260.512c70.807-152.156,485.791-294.489,702.618,14.917
		c216.827,309.406,403.226,307.844,552.835,250.61c171.569-65.636,260.637-288.171,529.202-246.395
		c310.4,48.284,290.679,333.061,483.874,315.014c351.31-32.818,648.449,427.562,252.652,752.438L286.45,1728.032z"/>
	<g>
		<path style="fill:#ACD29A;" d="M1550.322,1726.769c0,0-65.224-183.009,188.952-182.252
			c309.742,0.922,118.822-151.325,331.792-227.605c177.697-63.646,363.8,108.689,363.8,108.689s206.911-562.141,479.261-402.381
			c272.351,159.76-92.118,462.594-92.118,462.594s183.515,114.305,197.894,244.346L1550.322,1726.769z"/>
		<path style="fill:#ACD29A;" d="M2921.769,1685.049c0,0,193.544-4.996,178.678-62.652S2921.769,1685.049,2921.769,1685.049z"/>
		<path style="fill:#ACD29A;" d="M2948.885,1650.041c0,0,121.834-63.229,94.47-95.373
			C3015.99,1522.524,2948.885,1650.041,2948.885,1650.041z"/>
		<path style="fill:#ACD29A;" d="M1866.868,1612.998c0,0-55.958-313.77-152.234-325.83
			C1618.357,1275.108,1683.474,1419.462,1866.868,1612.998z"/>
		<path style="fill:#ACD29A;" d="M1798.594,1579.373c0,0-106.078-165.644-163.814-149.759S1648.292,1512.398,1798.594,1579.373z"/>
	</g>
	<g>
		<g>
			<path style="fill:#4A75CB;" d="M2969.71,387.673h-633.862c-19.874,0-36.134,16.26-36.134,36.133v1267.582
				c0,19.873,16.26,36.134,36.134,36.134h633.862c19.873,0,36.133-16.261,36.133-36.134V423.807
				C3005.843,403.934,2989.583,387.673,2969.71,387.673z"/>
			<path style="fill:#699FF0;" d="M2901.262,387.673h-633.862c-19.874,0-36.134,16.26-36.134,36.133v1267.582
				c0,19.873,16.26,36.134,36.134,36.134h633.862c19.873,0,36.134-16.261,36.134-36.134V423.807
				C2937.396,403.934,2921.135,387.673,2901.262,387.673z"/>
			<rect x="2258.011" y="494.799" style="fill:#EBF2F9;" width="654.129" height="1085.698"/>
			<g>
				<path style="fill:#4A75CB;" d="M2664.405,438.39h-183.559c-3.929,0-7.142,3.214-7.142,7.142c0,3.928,3.213,7.142,7.142,7.142
					h183.559c3.929,0,7.142-3.214,7.142-7.142C2671.547,441.603,2668.334,438.39,2664.405,438.39z"/>
				<path style="fill:#4A75CB;" d="M2697.006,438.39L2697.006,438.39c-3.928,0-7.142,3.214-7.142,7.142
					c0,3.928,3.214,7.142,7.142,7.142l0,0c3.928,0,7.142-3.214,7.142-7.142C2704.147,441.603,2700.934,438.39,2697.006,438.39z"/>
			</g>
			<path style="fill:#4A75CB;" d="M2569.805,1626.409c-20.197,0-36.571,16.374-36.571,36.572s16.374,36.571,36.571,36.571
				c20.199,0,36.572-16.373,36.572-36.571S2590.004,1626.409,2569.805,1626.409z"/>
		</g>
		<rect x="2255.42" y="1198.109" style="fill:#ADCBF9;" width="656.72" height="394.279"/>
		<g>
			<g>
				<path style="fill:#699FF0;" d="M2561.17,1521.738c-72.062,0-130.688-58.627-130.688-130.688
					c0-72.062,58.627-130.688,130.688-130.688s130.688,58.626,130.688,130.688
					C2691.857,1463.111,2633.231,1521.738,2561.17,1521.738z M2561.17,1277.429c-62.651,0-113.622,50.971-113.622,113.622
					c0,62.65,50.971,113.621,113.622,113.621c62.65,0,113.621-50.971,113.621-113.621
					C2674.791,1328.399,2623.82,1277.429,2561.17,1277.429z"/>
			</g>
			<path style="fill:#F1A34F;" d="M2473.018,1371.636c0,0,57.268,66.318,91.309,96.542c0,0,65.858-135.461,144.894-230.214
				c0,0-91.491,67.808-168.259,153.472C2540.961,1391.436,2519.608,1388.386,2473.018,1371.636z"/>
		</g>
		<g>
			<polygon style="fill:#D86713;" points="2469.364,694.561 2776.373,694.561 2815.663,988.624 2559.987,988.624 			"/>
			<g>
				<g>
					<path style="fill:#D86713;" d="M2669.698,726.746c-0.023,0-0.047,0-0.071,0c-2.523-0.039-4.538-2.116-4.499-4.64
						c0.992-64.509-9.077-107.471-29.929-127.691c-10.42-10.105-23.314-14.646-39.426-13.912
						c-61.027,2.816-65.675,140.414-65.715,141.804c-0.072,2.523-2.178,4.475-4.698,4.438c-2.523-0.072-4.51-2.175-4.438-4.697
						c0.171-6.02,4.981-147.469,74.43-150.674c18.521-0.854,34.053,4.691,46.211,16.481c23.054,22.356,33.752,66.316,32.704,134.393
						C2674.229,724.746,2672.189,726.746,2669.698,726.746z"/>
				</g>
				<polygon style="fill:#EE9849;" points="2712.089,694.561 2427.67,694.561 2367.645,988.624 2680.201,988.624 				"/>
				<g>
					<path style="fill:#FFFFFF;" d="M2553.465,800.988c-2.89,8.893-8.161,16.466-15.816,22.716
						c-7.655,6.254-15.944,9.379-24.864,9.379c-8.794,0-15.051-3.125-18.771-9.379c-3.723-6.25-4.138-13.823-1.248-22.716
						c2.974-9.151,8.339-16.918,16.103-23.299c7.762-6.382,16.168-9.573,25.219-9.573c9.048,0,15.349,3.288,18.904,9.86
						C2556.28,784.165,2556.438,791.837,2553.465,800.988z M2517.951,817.181c4.393,0,8.427-1.669,12.101-5.013
						c3.158-2.957,5.489-6.748,6.993-11.374c1.461-4.497,1.594-8.291,0.398-11.375c-1.287-3.6-4.13-5.4-8.523-5.4
						c-4.527,0-8.582,1.736-12.163,5.205c-3.161,2.958-5.511,6.812-7.058,11.57c-1.378,4.242-1.382,8.032-0.01,11.374
						C2511.057,815.512,2513.812,817.181,2517.951,817.181z M2609.063,774.316c-0.63,1.938-2.252,4.524-4.861,7.754l-53.945,66.092
						c-2.91,3.744-7.405,9.359-13.479,16.845c-7.437,9.069-18.547,22.734-33.329,40.997c-4.309,5.297-8.66,7.948-13.058,7.948
						c-2.458,0-4.265-0.809-5.421-2.423c-1.158-1.615-1.335-3.652-0.536-6.109c0.63-1.94,2.565-4.912,5.808-8.921l98.852-121.594
						c4.521-5.558,8.784-8.339,12.793-8.339C2608.349,766.565,2610.741,769.15,2609.063,774.316z M2599.998,880.402
						c-2.941,9.051-8.264,16.679-15.968,22.884c-7.708,6.206-16.019,9.309-24.938,9.309c-8.664,0-14.844-3.167-18.536-9.503
						c-3.696-6.333-4.114-13.896-1.258-22.69c3.024-9.308,8.345-17.129,15.963-23.465c7.616-6.334,16.015-9.504,25.197-9.504
						c9.309,0,15.658,3.137,19.051,9.407C2602.9,863.112,2603.063,870.967,2599.998,880.402z M2583.51,879.821
						c1.47-4.524,1.609-8.34,0.421-11.442c-1.496-3.36-4.44-5.043-8.834-5.043c-4.397,0-8.413,1.813-12.043,5.43
						c-3.208,3.104-5.545,6.918-7.015,11.442c-1.387,4.266-1.42,7.951-0.101,11.054c1.45,3.491,4.243,5.236,8.384,5.236
						c4.393,0,8.45-1.745,12.174-5.236C2579.658,888.29,2581.997,884.475,2583.51,879.821z"/>
				</g>
				<g>
					<path style="fill:#D86713;" d="M2640.105,726.746c-0.023,0-0.047,0-0.071,0c-2.523-0.039-4.538-2.116-4.499-4.64
						c0.992-64.509-9.077-107.471-29.929-127.691c-10.42-10.105-23.314-14.646-39.426-13.912
						c-61.027,2.816-65.675,140.414-65.715,141.804c-0.072,2.523-2.177,4.475-4.698,4.438c-2.523-0.072-4.51-2.175-4.438-4.697
						c0.171-6.02,4.981-147.469,74.43-150.674c18.519-0.854,34.053,4.691,46.211,16.481c23.054,22.356,33.752,66.316,32.704,134.393
						C2644.636,724.746,2642.597,726.746,2640.105,726.746z"/>
				</g>
			</g>
			<polygon style="fill:#C95C12;" points="2744.97,705.736 2719.487,988.511 2790.181,988.511 			"/>
		</g>
		<g>
			<path style="fill:#ADCBF9;" d="M2356.359,1073.479l183.664-0.399c3.868-0.009,7.025-3.181,7.018-7.048
				c-0.009-3.868-3.18-7.025-7.048-7.017l-183.664,0.399c-3.868,0.009-7.025,3.181-7.017,7.048l0,0
				C2349.32,1070.33,2352.492,1073.488,2356.359,1073.479z"/>
			<path style="fill:#ADCBF9;" d="M2330.713,1073.535l0.503-0.001c3.867-0.008,7.024-3.18,7.017-7.047
				c-0.008-3.868-3.18-7.025-7.048-7.017l-0.502,0.001c-3.868,0.008-7.025,3.18-7.017,7.047
				C2323.674,1070.387,2326.846,1073.544,2330.713,1073.535z"/>
			<path style="fill:#ADCBF9;" d="M2356.414,1098.299l183.664-0.399c3.867-0.009,7.025-3.181,7.017-7.048s-3.18-7.025-7.048-7.017
				l-183.664,0.399c-3.867,0.009-7.025,3.181-7.017,7.048l0,0C2349.375,1095.15,2352.546,1098.308,2356.414,1098.299z"/>
			<path style="fill:#ADCBF9;" d="M2330.768,1098.355l0.502-0.001c3.867-0.009,7.025-3.181,7.017-7.048
				c-0.008-3.868-3.18-7.025-7.047-7.017l-0.503,0.001c-3.867,0.008-7.025,3.18-7.017,7.047
				C2323.729,1095.206,2326.899,1098.363,2330.768,1098.355z"/>
			<path style="fill:#ADCBF9;" d="M2540.102,1108.654l-183.664,0.4c-3.868,0.008-7.025,3.18-7.018,7.047
				c0.009,3.868,3.181,7.025,7.048,7.018l183.664-0.4c3.868-0.009,7.025-3.18,7.017-7.048
				C2547.141,1111.804,2543.969,1108.646,2540.102,1108.654z"/>
			<path style="fill:#ADCBF9;" d="M2331.293,1109.109l-0.502,0.001c-3.868,0.009-7.025,3.18-7.018,7.048l0,0
				c0.009,3.867,3.18,7.025,7.048,7.017l0.502-0.001c3.868-0.009,7.026-3.18,7.018-7.048S2335.161,1109.101,2331.293,1109.109z"/>
		</g>
	</g>
	<g>
		<path style="fill:#163560;" d="M1293.868,853.919c0,0-62.289-27.175-72.67,36.641c-5.002,30.746,21.984,61.678,15.267,77.556
			c-6.717,15.878-32.366,50.075-15.877,65.953c0,0-1.221-15.267,8.549-26.869c0,0-13.109,42.23,14.208,47.679
			s72.507-18.978,69.454-61.725C1309.745,950.405,1293.868,853.919,1293.868,853.919z"/>
		<path style="fill:#163560;" d="M1338.447,863.69c0,0-13.435-18.32-48.854-12.214c-35.419,6.107-24.464,79.281,5.783,91.854
			L1338.447,863.69z"/>
		<path style="fill:#B77446;" d="M1484.99,1718.66c-0.75,2.27-5.01,6.8-16.02,8.859h-28.07c-5.95-1.029-7.65-2.27-17.54-1.05
			c-15.09,1.86-28.39,1.86-29.16-7.569c-0.27-3.32,0.33-6.601,0.93-9.811c1.13-5.91,5.93-10.42,5.04-17.17
			c-1.97-15.04-21.21-60.9-21.21-60.9l33.05-6.17c0,0,8.38,53.51,17.55,65.26c8.14,10.431,18.77,17.091,31.08,20.121
			c1.38,0.34,2.75,0.67,4.13,0.989C1475.68,1713.79,1485.88,1715.97,1484.99,1718.66z"/>
		<path style="fill:#365DA4;" d="M1484.99,1718.66c-0.75,2.27-5.01,6.8-16.02,8.859h-28.07c-5.95-1.029-7.65-2.27-17.54-1.05
			c-15.09,1.86-28.39,1.86-29.16-7.569c-0.27-3.32,0.33-6.601,0.93-9.811c9.8,0.98,24.32,6.801,38.53,8.12
			c17.42,1.62,30.98-5.79,30.98-5.79l0.13-0.2C1475.68,1713.79,1485.88,1715.97,1484.99,1718.66z"/>
		<g>
			<path style="fill:#365DA4;" d="M1423.747,1663.387c0,0-8.655,5.726-16.792,7.205c-12.206,2.219-17.873-0.244-17.873-0.244
				s-58.707-147.402-55.355-197.21c0.082-1.198,0.126-2.471,0.141-3.816c0.096-8.641-1.147-20.158-3.292-33.415
				c-0.792-4.86-1.702-9.949-2.715-15.217c-2.353-12.279-5.267-25.528-8.47-39.036c-1.406-5.947-2.878-11.947-4.372-17.938
				c-14.758-58.937-32.793-117.014-32.793-117.014s105.939-34.605,111.932-2.264c2.3,12.413,9.957,62.08,6.509,138.022
				c-2.781,61.133-0.983,108.816,4.298,164.157C1409.61,1595.219,1417.555,1637.021,1423.747,1663.387z"/>
		</g>
		<path style="fill:#285493;" d="M1333.868,1469.321c0.096-8.641-1.147-20.158-3.292-33.415c-0.792-4.86-1.702-9.949-2.715-15.217
			c-2.353-12.279-5.267-25.528-8.47-39.036c-1.406-5.947-2.878-11.947-4.372-17.938c2.094-17.983,3.78-30.322,3.78-30.322
			S1362.784,1393.134,1333.868,1469.321z"/>
		<path style="fill:#B77446;" d="M1351.34,1718.66c-0.75,2.27-5.01,6.8-16.02,8.859h-28.07c-5.95-1.029-7.65-2.27-17.54-1.05
			c-15.08,1.86-28.39,1.86-29.15-7.569c-0.28-3.32,0.32-6.601,0.92-9.811c1.13-5.91,5.04-10.359,5.04-17.17
			c0-20.22-4.68-56.96-4.68-56.96l31.07,11.101c0,0-7.01,36.52,3,44.049c10.57,7.951,18.78,17.091,31.08,20.121
			c1.38,0.34,2.76,0.67,4.13,0.989C1342.03,1713.79,1352.23,1715.97,1351.34,1718.66z"/>
		<path style="fill:#365DA4;" d="M1351.34,1718.66c-0.75,2.27-5.01,6.8-16.02,8.859h-28.07c-5.95-1.029-7.65-2.27-17.54-1.05
			c-15.08,1.86-28.39,1.86-29.15-7.569c-0.28-3.32,0.32-6.601,0.92-9.811c9.8,0.98,24.33,6.801,38.53,8.12
			c17.42,1.62,30.98-5.79,30.98-5.79l0.13-0.2C1342.03,1713.79,1352.23,1715.97,1351.34,1718.66z"/>
		<path style="fill:#365DA4;" d="M1346.042,1235.168c0,0-34.467,171.777-40.29,265.271s-13.091,170.896-13.091,170.896
			s-7.521,2.712-16.151,2.219c-9.112-0.521-16.336-3.328-16.336-3.328s-34.161-140.666-22.846-196.971
			c11.314-56.305,1.889-108.24-3.542-154.942c-7.788-66.965,22.177-98.091,43.095-119.307
			C1298.055,1177.527,1346.042,1235.168,1346.042,1235.168z"/>
		<path style="fill:#D9935C;" d="M1353.571,1010.352l-16.51,24.766l-33.267-1.636l-15.366-39.723c0,0,4.741-0.897,6.947-50.43
			l41.521,12.667c0,0-2.207,12.914,0.735,26.973C1339.676,992.777,1344.171,1003.241,1353.571,1010.352z"/>
		<path style="fill:#D9935C;" d="M1358.2,992.877c-2.136,0-41.25-13.085-97.101,9.663c0,0,26.515,151.694,15.125,180.646
			c-11.39,28.951-15.719,54.646-15.719,54.646l123.557,1.533c0,0-1.728-99.372,3.967-134.543
			C1393.724,1069.652,1358.2,992.877,1358.2,992.877z"/>
		<path style="fill:#80BDCC;" d="M1563.411,1094.949c-0.37-4.32-1.729-5.304-1.729-5.304c-39.502,5.799-65.685,5.474-78.512,7.974
			c-10.075,1.953-14.196,2.234-15.927-0.207c-54.571-76.733-93.194-100.835-93.194-100.835s-4.12-2.448-20.232-4.667
			c0,0-2.315,29.175-17.31,31.654c-25.936,4.275-46.833-19.478-52.937-29.043c0,0-29.782,7.517-38.526,17.48
			c-6.28,7.161-5.459,24.294-3.595,35.064c0.592,3.417,1.287,6.198,1.894,7.812c1.842,4.875,8.818,40.649,11.999,54.89
			c0.074,0.362,0.148,0.695,0.214,1.006c0.222,0.954,0.415,1.79,0.592,2.485c0.007,0.022,0.007,0.037,0.015,0.06
			c0.185,0.762,0.34,1.354,0.466,1.738c0.074,0.229,0.148,0.466,0.222,0.695c0,0.015,0.007,0.029,0.015,0.044
			c4.594,14.647,7.36,29.575,5.733,47.884c-0.192,2.153-0.688,4.75-1.42,7.672c-4.15,21.274-21.394,63.219-24.974,82.475
			c2.064,4.35,6.739,7.789,12.427,10.533c7.42,3.581,16.541,5.97,23.806,7.635c5.622,1.294,14.27,2.744,24.241,3.861
			c5.29,0.592,10.956,1.095,16.726,1.428c0.814,0.052,1.62,0.096,2.434,0.133c37.224,1.85,78.901,0.933,84.331-16.763
			c2.604-8.492-7.774-59.542-9.158-74.714c-2.418-26.648,1.524-63.141,3.304-91.396c30.547,33.662,62.075,45.775,62.075,45.775
			c7.545-0.354,16.237-1.768,25.329-3.802c9.765-2.183,19.996-5.082,29.782-8.189c27.667-8.759,53.678-21.02,53.678-21.02
			S1564.225,1104.484,1563.411,1094.949z"/>
		<path style="fill:#5F9AA8;" d="M1342.264,1220.373c-7.05,23.916-11.148,43.602-28.857,56.909
			c-5.771-0.333-11.437-0.836-16.726-1.428c-9.972-1.117-18.62-2.567-24.241-3.861c-7.265-1.665-16.386-4.054-23.805-7.635
			c-5.689-2.744-10.364-6.184-12.428-10.533c3.58-19.256,20.824-61.2,24.974-82.475c0.407-2.071,0.688-3.943,0.821-5.578
			c1.539-19.056-0.932-34.709-5.134-49.978c-0.008-0.015-0.015-0.029-0.015-0.044c-0.229-0.813-0.458-1.62-0.688-2.434
			c-0.007-0.022-0.007-0.037-0.015-0.06c-0.148-0.525-0.348-1.376-0.592-2.485c-0.066-0.311-0.141-0.644-0.214-1.006
			c-2.841-13.493-10.275-55.837-12.169-61.362c-0.599-1.746-1.272-4.742-1.857-8.434l14.876-14.313c0,0,85.352,36.447,104.156,86.72
			C1379.155,1162.65,1352.391,1186.063,1342.264,1220.373z"/>
		<path style="fill:#5F9AA8;" d="M1511.503,1128.326c-18.893,5.992-39.451,11.244-55.111,11.991c0,0-31.338-11.599-62.075-45.775
			c-1.295-5.807-3.156-16.215,3.878-13.404c9.868,3.943,46.36,50.799,60.171,51.782
			C1468.25,1133.623,1496.346,1130.287,1511.503,1128.326z"/>
		<path style="fill:#80BDCC;" d="M1444.094,1114.981c0,0-42.073,21.135-78.55,29.878c-10.497,2.516-20.609,4.299-29.235,4.705
			c0,0-39.502-11.871-69.167-54.001c-54.809-77.842-13.182-89.739-13.182-89.739s38.629,24.101,93.193,100.835
			c1.909,2.686,6.702,2.079,19.115-0.429c13.257-2.678,39.644-2.36,76.069-7.708c0,0,0.614,1.354,0.984,5.674
			C1444.142,1113.731,1444.094,1114.981,1444.094,1114.981z"/>
		<path style="fill:#A86337;" d="M1565.181,1107.307c0,0-26.011,12.262-53.678,21.02c-9.787,3.107-20.018,6.007-29.782,8.189
			c-3.92-17.436-1.213-31.025,1.45-38.896c12.827-2.5,40.242-2.668,79.745-8.467L1565.181,1107.307z"/>
		<path style="fill:#A86337;" d="M1553.052,1091.608c0,0,9.992-1.943,18.318-6.106s30.53-6.938,35.249-2.498
			c4.718,4.441-4.996,22.481-25.257,23.037c-20.261,0.555-26.09,3.886-26.09,3.886L1553.052,1091.608z"/>
		<g>
			<path style="fill:#CA5F00;" d="M1589.077,1030.146l-112.966,21.959c-4.946,0.961-8.993,5.794-8.993,10.74v78.069
				c0,4.945,4.047,8.205,8.993,7.244l112.966-21.959c4.946-0.961,8.992-5.794,8.992-10.74v-78.068
				C1598.069,1032.444,1594.023,1029.185,1589.077,1030.146z"/>
			<path style="fill:#E69D43;" d="M1593.578,1030.146l-112.966,21.959c-4.946,0.961-8.993,5.794-8.993,10.74v78.069
				c0,4.945,4.046,8.205,8.993,7.244l112.966-21.959c4.946-0.961,8.992-5.794,8.992-10.74v-78.068
				C1602.57,1032.444,1598.523,1029.185,1593.578,1030.146z"/>
			<path style="fill:#CA5F00;" d="M1482.488,1058.204c-2.039,0.396-3.692,2.371-3.692,4.41s1.653,3.371,3.692,2.975
				c2.04-0.396,3.693-2.371,3.693-4.41C1486.181,1059.139,1484.528,1057.808,1482.488,1058.204z"/>
		</g>
		<path style="fill:#B77446;" d="M1495.084,1089.014c-5.037-4.74-28.741-1.777-37.63,2.667c-5.197,2.599-10.998,4.386-14.923,5.423
			c-0.005-0.036-0.009-0.061-0.009-0.061c-36.425,5.348-62.997,6.51-76.253,9.188c4.15,8.951,7.279,22.791-0.725,38.629
			c34.837-8.351,75.662-26.989,79.261-28.648c4.088-1.038,11.335-2.275,23.316-2.604
			C1489.751,1113.015,1500.122,1093.755,1495.084,1089.014z"/>
		<path style="fill:#CC7C46;" d="M1337.632,982.969c-17.164-1.389-42.257-39.64-42.257-39.64l41.521,12.667
			C1336.897,955.997,1334.69,968.911,1337.632,982.969z"/>
		<path style="fill:#D9935C;" d="M1347.772,958.805c0,0-49.719,9.985-55.46-21.073c-5.742-31.058-16.025-50.686,15.476-58.375
			c31.502-7.688,39.878,3.02,44.315,12.921C1356.542,902.177,1360.558,955.407,1347.772,958.805z"/>
		<path style="fill:#163560;" d="M1323.475,871.604c0,0,0.872,10.533-15.48,28.409c-16.352,17.875-7.069,45.959-7.069,45.959
			s-32.942-48.017-18.24-64.556C1297.388,864.877,1323.475,871.604,1323.475,871.604z"/>
		<path style="fill:#163560;" d="M1303.484,857.896c0,0,24.718-8.271,49.245,15.899c10.566,10.413,8.971,30.882,3.311,42.76
			c0,0-8.693-25.452-24.513-31.003C1315.707,880,1303.484,857.896,1303.484,857.896z"/>
		<path style="fill:#FFFFFF;" d="M1332.283,943.523c0,0,1.33,3.686,10.689,2.013c0,0,7.859-1.403,7.136-5.54
			C1350.108,939.996,1342.091,937.919,1332.283,943.523z"/>
	</g>
	<g>
		<path style="fill:#D9935C;" d="M1794.432,1069.346l-7.495,12.144c-3.894,4.472-4.935,6.971-8.018,8.489
			c-7.445,3.664-21.193,13.064-22.23,32.812c0,0,0.234,11.176,7.727,7.555c7.493-3.621,4.22-3.286,14.87-8.165
			c10.65-4.88,14.601-20.4,15.532-25.692l8.69-11.407L1794.432,1069.346z"/>
		<g>
			<path style="fill:#D9935C;" d="M2269.034,891.473c0,0,7.948-19.473,16.69-20.267c8.743-0.795,36.562-5.166,38.548-1.192
				c1.987,3.974,0,18.281-5.961,23.447c-5.961,5.166-42.919,13.512-42.919,13.512L2269.034,891.473z"/>
			<path style="fill:#D9935C;" d="M2134.84,1715.21c-0.979,3.04-6.63,9.17-21.43,12.04h-38.7c-5.11-0.939-8.01-1.9-14.97-1.439
				c-0.26,0.02-0.53,0.039-0.801,0.06c-0.34,0.021-0.689,0.05-1.039,0.09c-1.33,0.12-2.82,0.3-4.471,0.51
				c-2.199,0.3-4.38,0.561-6.5,0.78c-0.96,0.1-1.91,0.189-2.84,0.27h-15.979c-0.58-0.08-1.141-0.17-1.69-0.27
				c-1.83-0.34-3.479-0.811-4.939-1.45c-0.021,0-0.04-0.01-0.061-0.02c-3.84-1.681-6.27-4.5-6.68-8.88
				c-0.41-4.381,0.33-8.74,1.08-12.99c0.09-0.51,0.199-1.02,0.31-1.53c1.55-7.271,5.561-9.649,6.3-18.05
				c1.36-15.71-11.64-70.24-11.64-70.24h49.54c0,0-1.34,49.36,4.33,65.99c5.34,15.689,21.51,20.52,37.83,24.35
				c1.83,0.42,3.66,0.84,5.49,1.25c0.67,0.141,1.33,0.301,1.989,0.44C2123.67,1709.17,2135.92,1711.811,2134.84,1715.21z"/>
			<g>
				<path style="fill:#80BDCC;" d="M1957.09,1183.383c4.182,23.474,10.147,47.729,15.329,72.957
					c8.323,40.565,14.605,83.658,8.174,130.061c-0.823,5.975-1.268,12.564-1.368,19.648
					c-1.248,82.014,35.397,230.641,35.397,230.641s9.953,4.294,26.633,3.469c8.588-0.426,21.767-5.964,21.767-5.964
					s3.469-92.149,3.677-216.077c0.15-89.829,17.788-208.106,21.352-277.609c2.156-42.061-2.525-98.095-2.525-98.095
					s-73.046-58.738-99.284-28.686C1960.32,1043.424,1941.444,1095.572,1957.09,1183.383z"/>
			</g>
			<path style="fill:#5F9AA8;" d="M1980.593,1386.4c-0.823,5.975-1.268,12.564-1.368,19.648
				c54.705-79.259,66.804-252.095,66.804-252.095l-60.086,29.161c0,0-6.589,32.411-13.525,73.225
				C1980.742,1296.905,1987.024,1339.998,1980.593,1386.4z"/>
			<path style="fill:#D9935C;" d="M1976.8,1715.84c-0.91,2.83-5.87,8.35-18.52,11.41h-44.84c-3.42-0.68-6.36-1.17-11.74-0.811
				c-0.26,0.021-0.53,0.03-0.8,0.061c-0.34,0.02-0.69,0.05-1.04,0.08c-1.33,0.12-2.82,0.3-4.47,0.52
				c-0.39,0.051-31.23-0.359-31.95-0.67c-0.02,0-0.05-0.01-0.06-0.02c-3.85-1.69-6.27-4.5-6.68-8.88
				c-0.41-4.39,0.33-8.74,1.08-12.99c0.09-0.51,0.19-1.021,0.31-1.53c1.54-7.27,5.8-11.89,6.55-20.279
				c1.36-15.711-1.49-71.09-1.49-71.09l45.9,3.829c0,0-8.11,48.601-2.44,65.24c5.35,15.681,21.52,20.521,37.84,24.351
				c1.83,0.409,3.66,0.84,5.48,1.239c0.68,0.15,1.34,0.3,2,0.45C1965.62,1709.79,1977.87,1712.43,1976.8,1715.84z"/>
			<path style="fill:#80BDCC;" d="M1863.168,1640.885c0,0,11.799,5.584,20.293,7.282c8.495,1.699,26.143-1.619,26.143-1.619
				c3.183-35.688,10.579-91.49,24.951-154.462c16.366-71.692,40.717-156.411,74.67-236.638c7.25-17.133,37.154-98.234,42.229-118.7
				c15.346-61.839-0.061-55.178-0.061-55.178l-134.125-15.739c0,0-16.524,8.493-24.135,95.815
				c-2.276,26.151-2.557,139.067-5.989,160.473c-3.25,20.273-7.056,37.126-11.518,48.078
				C1850.709,1431.357,1863.168,1640.885,1863.168,1640.885z"/>
			<path style="fill:#B84C42;" d="M1976.8,1715.98c-0.91,2.869-5.87,8.449-18.52,11.539h-44.84c-3.42-0.68-6.36-1.18-11.74-0.819
				c-0.26,0.02-0.53,0.03-0.8,0.06c-0.34,0.021-0.69,0.061-1.04,0.09c-1.36,0.101-2.85,0.25-4.5,0.44
				c-0.67,0.08-1.34,0.16-2.01,0.229h-27.06c-1.01-0.229-1.96-0.5-2.85-0.83c-0.02,0-0.05-0.01-0.06-0.02
				c-3.85-1.71-6.27-4.55-6.68-8.98c-0.41-4.439,0.33-8.83,1.08-13.129c0.09-0.521,0.19-1.03,0.31-1.551
				c13.51,1.9,32.74,9.53,51.58,11.36c21.42,2.1,38.66-5.78,42.26-7.58C1965.62,1709.87,1977.87,1712.54,1976.8,1715.98z"/>
			<path style="fill:#B84C42;" d="M2134.84,1715.366c-0.979,3.077-6.63,9.281-21.43,12.187h-38.7
				c-5.11-0.951-8.01-1.924-14.97-1.457c-0.26,0.02-0.53,0.04-0.801,0.061c-0.34,0.02-0.689,0.05-1.039,0.091
				c-1.36,0.101-2.84,0.243-4.5,0.445c-2.86,0.344-5.67,0.638-8.4,0.86c-6.27,0.516-12.11,0.617-17.03,0
				c-2.399-0.304-4.58-0.779-6.489-1.468c-0.021,0-0.04-0.011-0.061-0.021c-3.84-1.7-6.27-4.555-6.68-8.988
				c-0.41-4.433,0.33-8.846,1.08-13.147c0.09-0.517,0.199-1.032,0.31-1.549c13.51,1.903,32.74,9.545,51.58,11.366
				c21.42,2.116,38.66-5.779,42.26-7.58C2123.67,1709.252,2135.92,1711.925,2134.84,1715.366z"/>
			<path style="fill:#B74B42;" d="M2068.395,664.221c4.531-36.998-7.023-96.201-80.869-86.741
				c-73.845,9.46-97.116,82.032-82.223,114.3c14.893,32.269-21.439,40.05-32.845,74.751c-9.798,29.81-13.213,66.822-29.069,83.434
				c-51.12,53.555,49.079,135.91,109.483,118.543c110.024-31.631,124.196-36.352,120.29-122.801
				c-2.001-44.292-36.461-61.453-14.582-74.268C2111.434,740.481,2058.144,747.94,2068.395,664.221z"/>
			<path style="fill:#D9935C;" d="M1959.852,761.063l20.346,52.57l43.905,2.142l21.903-32.71
				c-13.823-10.514-19.664-26.284-21.807-40.399c-1.752-11.294-1.266-21.514-0.778-27.063c0.292-2.824,0.584-4.478,0.584-4.478
				l-54.711-16.646l-0.194-0.098c-0.681,14.505-1.46,25.894-2.336,34.752C1963.649,760.381,1959.852,761.063,1959.852,761.063z"/>
			<path style="fill:#D9935C;" d="M2046.196,759.214c-2.825,0-50.779-9.758-131.765,10.959c0,0,44.353,203.207,29.286,241.507
				c-15.067,38.3-20.794,72.292-20.794,72.292l163.455,2.028c0,0-2.285-131.461,5.248-177.989
				C2099.16,861.484,2046.196,759.214,2046.196,759.214z"/>
			<path style="fill:#E69D43;" d="M2269.696,881.706c0,0-93.141,35.007-102.396,35.671c-20.164,1.437-40.685-95.885-59.531-128.316
				c-12.759-21.964-55.767-28.964-61.178-29.764c-0.133-0.027-0.261-0.055-0.396-0.081c0,0-0.001,0.02-0.002,0.024
				c-0.105-0.015-0.165-0.023-0.165-0.023l0.123,0.502c-0.421,4.45-4.174,37.738-22.687,40.792
				c-34.306,5.663-61.953-25.766-70.028-38.417l-0.005,0.001c0-0.001,0-0.001,0-0.002c0,0-38.878,1.537-56.907,18.314
				c-20.386,18.971-50.731,134.968-58.918,191.456c0,0-41.147,78.418-54.246,109.527c0,0,2.454,4.247,7.362,7.456
				c4.757,3.11,10.759,4.342,10.759,4.342s74.227-82.849,79.104-95.947c2.317-6.223,20-34.948,37.391-75.1
				c6.152,19.505,9.886,39.352,7.711,63.739c-2.39,26.899-27.521,88.364-22.085,101.457c5.697,13.749,13.614,20.715,30.931,24.69
				c11.938,2.752,28.337,4.077,51.555,5.232c49.245,2.446,102.014-3.742,109.194-27.152c3.443-11.235,2.116-54.711,0.293-74.78
				c-2.396-26.384-0.079-60.053,2.225-90.994c0.114,0.173,0.223,0.342,0.337,0.516c5.381,8.164,11.475,16.934,17.747,25.049
				c9.442,12.198,19.291,22.899,27.724,27.774c2.041,1.189,4.003,2.021,5.856,2.458c6.45,1.525,18.261-2.042,32.282-8.195
				c4.974-2.18,10.226-4.687,15.615-7.412c38.892-19.648,84.877-50.444,84.877-50.444
				C2285.213,896.241,2269.696,881.706,2269.696,881.706z"/>
			<path style="fill:#E58638;" d="M1903.604,1087.335c5.697,13.749,13.613,20.715,30.931,24.69
				c23.15-4.451,38.417-47.048,46.277-68.012c9.061-24.158-38.134-148.368-51.159-147.236c-9.684,0.838-11.541,16.683-11.858,24.77
				c6.263,19.696,10.091,39.697,7.894,64.331C1923.3,1012.777,1898.168,1074.242,1903.604,1087.335z"/>
			<path style="fill:#E58638;" d="M2098.139,924.848c5.381,8.164,11.475,16.934,17.747,25.049
				c8.996,11.078,18.935,21.789,27.724,27.774c2.041,1.189,4.003,2.021,5.856,2.458c6.45,1.525,18.261-2.042,32.282-8.195
				c-8.344,0.615-16.538,0.317-24.594-0.367c-14.109-1.199-18.212-16.477-40.516-39.387
				C2103.301,918.486,2099.249,920.597,2098.139,924.848z"/>
			<path style="fill:#CC7C46;" d="M1969.295,694.477c8.275,13.53,28.232,41.374,54.905,48.188
				c-1.752-11.294-1.266-21.514-0.778-27.063c0.292-2.824,0.584-4.478,0.584-4.478L1969.295,694.477z"/>
			<path style="fill:#D9935C;" d="M2038.37,714.842c0,0-65.774,13.209-73.37-27.878c-7.596-41.087-21.201-67.054,20.474-77.225
				c41.673-10.171,52.754,3.995,58.625,17.092C2049.971,639.929,2055.283,710.347,2038.37,714.842z"/>
			<path style="fill:#B74B42;" d="M2006.227,599.482c0,0,1.152,13.935-20.479,37.583c-21.632,23.648-17.416,71.468-17.416,71.468
				s-35.516-74.19-16.066-96.07C1971.715,590.583,2006.227,599.482,2006.227,599.482z"/>
			<path style="fill:#B74B42;" d="M1979.78,581.348c0,0,32.701-10.942,65.147,21.033c13.979,13.775,11.867,40.854,4.38,56.567
				c0,0-11.499-33.67-32.428-41.014C1995.949,610.589,1979.78,581.348,1979.78,581.348z"/>
			<path style="fill:#FFFFFF;" d="M2017.878,694.626c0,0,1.759,4.876,14.142,2.663c0,0,10.396-1.857,9.439-7.33
				C2041.459,689.959,2030.854,687.213,2017.878,694.626z"/>
		</g>
	</g>
	<path style="fill:#A6C7F9;" d="M1041.251,1540.93H334.498c-9.852,0-17.913,7.756-17.913,17.235v0.001
		c0,9.479,8.061,17.235,17.913,17.235h16.285v141.023c0,6.032,5.129,10.967,11.398,10.967h66.77c6.269,0,11.398-4.935,11.398-10.967
		v-141.023h463.706v140.957c0,6.068,5.16,11.033,11.467,11.033h66.632c6.307,0,11.467-4.965,11.467-11.033v-140.957h47.632
		c9.853,0,17.914-7.756,17.914-17.235v-0.001C1059.165,1548.686,1051.104,1540.93,1041.251,1540.93z"/>
	<g>
		<g>
			<path style="fill:#A6D9F1;" d="M1606.792,415.66h-172.761c-45.449,0-82.634,37.185-82.634,82.633v142.309
				c0,45.448,37.185,82.633,82.633,82.633h172.761c45.449,0,82.634-37.185,82.634-82.633V498.293
				C1689.426,452.845,1652.241,415.66,1606.792,415.66z"/>
			<g>
				<path style="fill:#D86713;" d="M1431.902,553.217c0,0-64.967,32.339-66.194,40.414l135.79,0.331c0,0,32.027-6.382,38.421-31.669
					c9.603-37.982,26.444-35.737,26.444-35.737l-0.858,67.563l19.323,0.047c0,0,28.985-100.542,29.033-120.371
					c0.048-19.829-8.2-25.356-8.2-25.356s-50.683,3.732-110.393,95.57C1495.267,544.008,1483.514,555.179,1431.902,553.217z"/>
			</g>
			<g>
				<path style="fill:#F1A34F;" d="M1483.513,613.995c0,0-57.969,43.659-57.701,51.823l133.566-24.472
					c0,0,30.324-12.123,31.992-38.153c2.505-39.097,19.473-39.965,19.473-39.965l11.494,66.583l19.006-3.482
					c0,0,10.137-104.145,6.563-123.648c-3.573-19.504-12.693-23.433-12.693-23.433s-49.149,12.925-91.084,114.122
					C1544.129,593.369,1534.614,606.498,1483.513,613.995z"/>
				<path style="fill:#EBF2F9;" d="M1461.978,603.448c0,0,5.466,20.262-5.769,27.143c-10.74,6.579-20.258,7.876-20.258,7.876
					s32.59-1.587,39.996,26.869c0,0-9.915-30.188,19.544-36.901C1495.491,628.435,1474.635,636.641,1461.978,603.448z"/>
			</g>
		</g>
		<g>
			<path style="fill:#A6D9F1;" d="M1504.683,875.125c-2.639,1.121-3.87,4.169-2.749,6.808c1.121,2.639,4.168,3.87,6.807,2.749
				c2.639-1.121,3.87-4.168,2.75-6.808C1510.369,875.235,1507.321,874.005,1504.683,875.125z"/>
			<path style="fill:#A6D9F1;" d="M1542.147,832.202c-5,2.123-7.333,7.899-5.209,12.899c2.124,5.001,7.899,7.333,12.899,5.21
				c5-2.124,7.333-7.899,5.209-12.899C1552.923,832.41,1547.147,830.078,1542.147,832.202z"/>
			<path style="fill:#A6D9F1;" d="M1585.535,769.477c-3.371-7.939-12.54-11.641-20.478-8.27c-7.938,3.371-11.641,12.539-8.27,20.478
				c3.371,7.938,12.539,11.641,20.477,8.27C1585.203,786.583,1588.906,777.415,1585.535,769.477z"/>
		</g>
	</g>
	<g>
		<g>
			<path style="fill:#EE9849;" d="M669.166,896.574H562.933c-27.947,0-50.813,22.865-50.813,50.813v87.507
				c0,27.946,22.866,50.813,50.813,50.813h106.233c27.947,0,50.813-22.866,50.813-50.813v-87.507
				C719.978,919.44,697.112,896.574,669.166,896.574z"/>
			<g>
				<g>
					<path style="fill:#E58638;" d="M601.925,955.575c0,7.653-2.392,14.179-7.148,19.562c-4.756,5.397-10.915,8.088-18.463,8.088
						c-7.441,0-13.6-2.691-18.477-8.088c-4.863-5.383-7.308-11.909-7.308-19.562c0-7.885,2.419-14.573,7.228-20.065
						c4.823-5.506,11.048-8.252,18.717-8.252c7.655,0,13.895,2.828,18.717,8.497C599.681,941.083,601.925,947.69,601.925,955.575z
						 M576.314,969.523c3.714,0,6.667-1.441,8.857-4.323c1.857-2.542,2.793-5.805,2.793-9.788c0-3.875-0.935-7.15-2.793-9.801
						c-2.071-3.1-4.983-4.65-8.697-4.65c-3.834,0-6.787,1.495-8.871,4.486c-1.857,2.542-2.779,5.859-2.779,9.964
						c0,3.643,1.028,6.919,3.113,9.788C570.021,968.081,572.8,969.523,576.314,969.523z M641.644,932.601
						c0,1.672-0.655,3.901-1.977,6.675l-27.495,56.932c-1.43,3.222-3.688,8.062-6.773,14.505
						c-3.794,7.816-9.445,19.589-16.94,35.317c-2.191,4.567-5.143,6.852-8.857,6.852c-2.084,0-3.834-0.707-5.264-2.094
						c-1.417-1.387-2.125-3.14-2.125-5.261c0-1.672,0.815-4.228,2.458-7.681l50.233-104.743c2.298-4.785,5.144-7.178,8.537-7.178
						C638.905,925.926,641.644,928.155,641.644,932.601z M663.153,1023.981c0,7.79-2.405,14.369-7.228,19.712
						c-4.81,5.343-10.995,8.021-18.544,8.021c-7.334,0-13.44-2.732-18.303-8.197c-4.877-5.451-7.308-11.963-7.308-19.535
						c0-8.021,2.352-14.764,7.054-20.215c4.703-5.451,10.941-8.184,18.717-8.184c7.882,0,14.122,2.706,18.717,8.103
						C660.855,1009.081,663.153,1015.852,663.153,1023.981z M649.032,1023.477c0-3.901-0.922-7.178-2.792-9.855
						c-2.191-2.895-5.144-4.351-8.858-4.351c-3.727,0-6.626,1.564-8.697,4.69c-1.87,2.664-2.792,5.954-2.792,9.842
						c0,3.685,0.975,6.852,2.952,9.529c2.191,3.005,5.037,4.514,8.537,4.514c3.714,0,6.667-1.509,8.858-4.514
						C648.11,1030.777,649.032,1027.488,649.032,1023.477z"/>
				</g>
				<g>
					<path style="fill:#FFFFFF;" d="M666.009,1003.685c-4.596-5.397-10.835-8.103-18.717-8.103c-7.775,0-14.014,2.733-18.717,8.184
						c-4.703,5.451-7.054,12.194-7.054,20.215c0,7.572,2.432,14.084,7.308,19.535c4.863,5.465,10.969,8.197,18.303,8.197
						c7.548,0,13.734-2.678,18.544-8.021c4.823-5.343,7.227-11.923,7.227-19.712
						C672.903,1015.852,670.605,1009.081,666.009,1003.685z M655.989,1033.333c-2.191,3.005-5.144,4.514-8.858,4.514
						c-3.5,0-6.346-1.509-8.537-4.514c-1.977-2.678-2.953-5.845-2.953-9.529c0-3.888,0.922-7.178,2.792-9.842
						c2.071-3.127,4.97-4.69,8.697-4.69c3.714,0,6.667,1.455,8.858,4.351c1.871,2.678,2.792,5.954,2.792,9.855
						C658.782,1027.488,657.86,1030.777,655.989,1033.333z"/>
					<path style="fill:#FFFFFF;" d="M604.527,975.137c4.756-5.383,7.148-11.909,7.148-19.562c0-7.885-2.245-14.492-6.733-19.82
						c-4.823-5.669-11.062-8.497-18.717-8.497c-7.668,0-13.894,2.746-18.717,8.252c-4.809,5.492-7.227,12.18-7.227,20.065
						c0,7.653,2.445,14.179,7.308,19.562c4.877,5.397,11.035,8.088,18.477,8.088C593.612,983.225,599.771,980.534,604.527,975.137z
						 M577.688,965.199c-2.084-2.868-3.113-6.145-3.113-9.788c0-4.105,0.922-7.422,2.779-9.964c2.084-2.991,5.037-4.486,8.871-4.486
						c3.714,0,6.626,1.55,8.697,4.65c1.857,2.651,2.793,5.927,2.793,9.801c0,3.983-0.936,7.246-2.793,9.788
						c-2.191,2.882-5.144,4.323-8.857,4.323C582.55,969.523,579.771,968.081,577.688,965.199z"/>
					<path style="fill:#FFFFFF;" d="M649.417,939.275c1.322-2.773,1.977-5.003,1.977-6.675c0-4.445-2.739-6.675-8.203-6.675
						c-3.393,0-6.239,2.393-8.537,7.178l-50.233,104.743c-1.643,3.453-2.458,6.009-2.458,7.681c0,2.121,0.708,3.874,2.124,5.261
						c1.43,1.387,3.18,2.094,5.264,2.094c3.714,0,6.667-2.284,8.857-6.852c7.495-15.729,13.146-27.501,16.94-35.317
						c3.086-6.443,5.344-11.283,6.773-14.505L649.417,939.275z"/>
				</g>
			</g>
		</g>
		<g>
			<path style="fill:#EE9849;" d="M606.377,1179.697c-1.623,0.688-2.379,2.563-1.69,4.186c0.689,1.623,2.563,2.379,4.186,1.69
				c1.623-0.689,2.38-2.563,1.69-4.187C609.873,1179.765,608,1179.008,606.377,1179.697z"/>
			<path style="fill:#EE9849;" d="M629.414,1153.303c-3.075,1.306-4.509,4.856-3.203,7.932c1.306,3.075,4.858,4.509,7.932,3.203
				c3.075-1.306,4.509-4.857,3.203-7.932C636.041,1153.431,632.489,1151.997,629.414,1153.303z"/>
			<path style="fill:#EE9849;" d="M656.094,1114.732c-2.073-4.882-7.71-7.158-12.592-5.085c-4.881,2.072-7.158,7.71-5.086,12.592
				c2.073,4.881,7.711,7.158,12.592,5.085C655.89,1125.251,658.167,1119.613,656.094,1114.732z"/>
		</g>
	</g>
	<g>
		<path style="fill:#A6D9F1;" d="M3555.15,825.032h-173.279c-45.584,0-82.881,37.296-82.881,82.881v142.735
			c0,45.585,37.297,82.881,82.881,82.881h173.279c45.585,0,82.882-37.296,82.882-82.881V907.913
			C3638.032,862.329,3600.735,825.032,3555.15,825.032z"/>
		<g>
			<path style="fill:#A6D9F1;" d="M3452.734,1286.841c-2.646,1.124-3.881,4.182-2.757,6.828s4.181,3.881,6.827,2.757
				c2.647-1.124,3.882-4.181,2.758-6.827C3458.438,1286.951,3455.382,1285.717,3452.734,1286.841z"/>
			<path style="fill:#A6D9F1;" d="M3490.312,1243.789c-5.016,2.13-7.354,7.922-5.225,12.938s7.922,7.354,12.938,5.225
				s7.355-7.922,5.226-12.938C3501.119,1243.998,3495.327,1241.659,3490.312,1243.789z"/>
			<path style="fill:#A6D9F1;" d="M3533.83,1180.875c-3.382-7.962-12.578-11.676-20.54-8.294
				c-7.962,3.381-11.676,12.577-8.294,20.539c3.381,7.962,12.576,11.676,20.539,8.294
				C3533.497,1198.033,3537.211,1188.838,3533.83,1180.875z"/>
		</g>
		<g>
			<path style="fill:#E69D43;" d="M3593.689,932.434l-228.822-44.222c-4.348-0.84-8.592,2.029-9.432,6.376l-24.271,125.59
				c-0.84,4.347,2.029,8.591,6.377,9.431l228.822,44.223c4.348,0.84,8.592-2.029,9.432-6.377l24.271-125.59
				C3600.906,937.518,3598.037,933.273,3593.689,932.434z"/>
			
				<rect x="3458.262" y="820.759" transform="matrix(0.1898 -0.9818 0.9818 0.1898 1885.3745 4175.3525)" style="fill:#D86713;" width="28.499" height="249.157"/>
			
				<rect x="3425.909" y="896.301" transform="matrix(0.1898 -0.9818 0.9818 0.1898 1830.0292 4162.6377)" style="opacity:0.4;fill:#D86713;" width="22.406" height="152.446"/>
			<path style="fill:#D86713;" d="M3381.321,991.339l-18.589-3.592c-3.299-0.638-6.49,1.52-7.127,4.818l-3.1,16.035
				c-0.637,3.299,1.52,6.489,4.818,7.127l18.59,3.593c3.299,0.638,6.489-1.52,7.127-4.818l3.099-16.036
				C3386.777,995.168,3384.62,991.977,3381.321,991.339z"/>
			<g>
				<path style="opacity:0.2;fill:#D86713;" d="M3563.028,1022.241l-147.033-28.415c-1.278-0.247-2.514,0.589-2.761,1.867
					l-0.437,2.258c-0.247,1.278,0.589,2.514,1.866,2.761l147.033,28.415c1.278,0.248,2.515-0.588,2.762-1.866l0.436-2.259
					C3565.142,1023.725,3564.307,1022.488,3563.028,1022.241z"/>
				<path style="opacity:0.2;fill:#D86713;" d="M3560.528,1035.32l-147.087-28.426c-1.263-0.244-2.484,0.582-2.729,1.845
					l-0.417,2.156c-0.244,1.263,0.582,2.485,1.845,2.729l147.088,28.425c1.263,0.244,2.484-0.582,2.729-1.845l0.417-2.156
					C3562.618,1036.786,3561.792,1035.564,3560.528,1035.32z"/>
				<path style="opacity:0.2;fill:#D86713;" d="M3558.121,1047.388l-146.941-28.398c-1.304-0.252-2.564,0.601-2.816,1.904
					l-0.472,2.441c-0.252,1.304,0.601,2.565,1.904,2.816l146.94,28.397c1.304,0.252,2.564-0.601,2.816-1.904l0.472-2.441
					C3560.277,1048.9,3559.424,1047.64,3558.121,1047.388z"/>
			</g>
		</g>
	</g>
	<g>
		<polygon style="fill:#3B76CA;" points="285.264,1583.308 403.262,1583.308 418.363,1729.879 320.095,1729.879 		"/>
		<g>
			<g>
				<path style="fill:#466AA5;" d="M362.26,1599.151c-0.008,0-0.016,0-0.024,0c-1.07-0.009-1.921-0.488-1.913-1.075
					c0.405-17.553-3.996-28.87-13.081-33.64c-3.679-1.928-8.04-2.768-13.372-2.63c-19.337,0.596-24.678,26.41-25.099,36.311
					c-0.033,0.581-1.038,1.097-1.986,1.034c-1.062-0.018-1.913-0.502-1.888-1.088c0.073-1.532,1.921-37.549,28.762-38.371
					c6.289-0.257,11.816,0.884,16.257,3.212c10.033,5.268,14.702,16.779,14.28,35.199
					C364.181,1598.686,363.314,1599.151,362.26,1599.151z"/>
			</g>
			<polygon style="fill:#699DEE;" points="269.239,1583.308 246.168,1729.879 366.299,1729.879 378.555,1583.308 			"/>
			<g>
				<path style="fill:#466AA5;" d="M350.889,1599.151c-0.008,0-0.016,0-0.025,0c-1.07-0.009-1.92-0.488-1.913-1.075
					c0.405-17.553-3.995-28.87-13.08-33.64c-3.68-1.928-8.032-2.768-13.373-2.63c-19.353,0.596-24.678,26.41-25.099,36.311
					c-0.024,0.581-0.818,1.097-1.985,1.034c-1.062-0.018-1.913-0.502-1.889-1.088c0.073-1.532,1.913-37.549,28.763-38.371
					c6.297-0.257,11.816,0.884,16.257,3.212c10.033,5.268,14.701,16.779,14.28,35.199
					C352.81,1598.686,351.943,1599.151,350.889,1599.151z"/>
			</g>
		</g>
	</g>
	<g>
		<polygon style="fill:#D86713;" points="685.94,1441.054 790.67,1441.054 804.073,1541.367 716.854,1541.367 		"/>
		<g>
			<g>
				<path style="fill:#D86713;" d="M754.28,1452.032c-0.008,0-0.016,0-0.024,0c-0.861-0.013-1.548-0.722-1.535-1.583
					c0.339-22.005-3.096-36.66-10.209-43.558c-3.554-3.448-7.962-5.008-13.45-4.746c-20.818,0.96-22.403,47.898-22.417,48.372
					c-0.024,0.861-0.75,1.526-1.603,1.515c-0.86-0.025-1.538-0.742-1.514-1.603c0.058-2.054,1.699-50.306,25.39-51.399
					c6.31-0.295,11.616,1.601,15.764,5.623c7.865,7.626,11.514,22.622,11.156,45.845
					C755.825,1451.351,755.13,1452.032,754.28,1452.032z"/>
			</g>
			<polygon style="fill:#E69D43;" points="671.718,1441.054 651.241,1541.367 757.863,1541.367 768.741,1441.054 			"/>
			<g>
				<path style="fill:#D86713;" d="M694.993,1452.032c-0.015,0-0.03,0-0.045,0c-0.86-0.024-1.538-0.742-1.514-1.603
					c0.058-2.054,1.699-50.306,25.39-51.399c6.309-0.295,11.616,1.601,15.764,5.622c7.864,7.627,11.514,22.622,11.156,45.846
					c-0.013,0.853-0.708,1.534-1.558,1.534c-0.008,0-0.016,0-0.024,0c-0.861-0.013-1.548-0.722-1.535-1.583
					c0.338-22.006-3.097-36.661-10.21-43.559c-3.554-3.447-7.961-5.006-13.449-4.745c-10.68,0.492-16.204,13.411-18.958,24.162
					c-3.082,12.033-3.456,24.09-3.459,24.21C696.526,1451.363,695.833,1452.032,694.993,1452.032z"/>
			</g>
		</g>
		<polygon style="fill:#C95C12;" points="779.957,1444.865 771.265,1541.328 795.38,1541.328 		"/>
	</g>
	<g>
		<path style="fill:#E49963;" d="M586.884,1403.354c0,0,11.965-7.45,17.158-6.321c5.193,1.129,19.416,5.192,19.867,11.063
			c0.452,5.87-20.318,15.126-35.67,9.934S586.884,1403.354,586.884,1403.354z"/>
		<path style="fill:#D38957;" d="M523.436,1715.665c0.006,2.628,1.3,4.437,3.502,5.649c0.007,0.006,0.02,0.013,0.034,0.013
			c4.07,2.242,10.569,0.521,18.344,0.183c0.996-0.041,2.537,1.877,3.336,1.877c0.21,0,0.42,0,0.623,0.007
			c0.163,0,0.325,0.007,0.48,0.007c7.694,0.189,6.881,2.492,21.504,3.745c16.668,1.422,22.812-3.678,23.793-6.001
			c0.826-1.971-6.326-4.206-14.318-6.76c-0.386-0.121-0.772-0.25-1.165-0.372c-1.063-0.339-2.133-0.69-3.197-1.036
			c-9.516-3.163-18.883-6.915-21.219-16.546c-2.479-10.214,4.971-38.721,4.971-38.721l-26.414-2.852c0,0-2.546,29.801-4.206,39.086
			c-0.894,4.958-3.143,8.899-4.456,13.146c-0.095,0.298-0.183,0.597-0.264,0.894
			C524.106,1710.478,523.429,1713.031,523.436,1715.665z"/>
		<g>
			<path style="fill:#2F5791;" d="M523.436,1715.665c0.006,2.628,1.3,4.437,3.502,5.649c0.007,0.006,0.02,0.013,0.034,0.013
				c5.899,3.795,16.38-1.483,33.442,6.392c0.734,0.338,6.461-0.058,10.441-0.113c5.175-0.072,12.643,0.395,14.393,0.113
				c8.057-1.3,9.253-5.27,9.805-6.574c0.826-1.971-6.326-4.206-14.318-6.76c-2.242,0.867-12.929,4.579-25.574,2.182
				c-11.121-2.093-22.168-7.627-30.112-9.476c-0.095,0.298-0.183,0.597-0.264,0.894
				C524.106,1710.478,523.429,1713.031,523.436,1715.665z"/>
			<polygon style="fill:#2F5791;" points="526.098,1720.24 529.992,1727.521 538.458,1727.521 538.458,1722.188 			"/>
		</g>
		<path style="fill:#B74B42;" d="M386.959,1461.623l85.509-8.15c0,0,130.874,0.592,143.064,17.868c0,0,23.365,16.197-3.047,83.144
			c-26.413,66.947-57.433,133.854-57.433,133.854s-7.902,2.159-18.738,1.319c-4.28-0.331-10.046-1.799-10.046-1.799
			s5.963-99.901,19.169-138.773c13.207-38.873,17.27-31.314-6.095-29.154c-23.365,2.159-98.54,19.436-133.081,15.117
			C371.721,1530.729,386.959,1461.623,386.959,1461.623z"/>
		<path style="fill:#E49963;" d="M856.325,1715.665c-0.007,2.628-1.3,4.437-3.502,5.649c-0.007,0.006-0.021,0.013-0.034,0.013
			c-4.07,2.242-11.215,2.466-18.991,2.127c-0.996-0.04-1.89-0.067-2.689-0.067c-0.21,0-0.42,0-0.623,0.007
			c-0.163,0-0.325,0.007-0.481,0.007c-7.694,0.189-6.881,2.492-21.504,3.745c-16.668,1.422-22.811-3.678-23.793-6.001
			c-0.826-1.971,6.326-4.206,14.318-6.76c0.386-0.121,0.772-0.25,1.165-0.372c1.063-0.339,2.133-0.69,3.197-1.036
			c9.516-3.163,18.883-6.915,21.219-16.546c2.479-10.214-4.971-38.721-4.971-38.721l26.414-2.852c0,0,2.547,29.801,4.206,39.086
			c0.894,4.958,3.143,8.899,4.457,13.146c0.095,0.298,0.183,0.597,0.264,0.894C855.654,1710.478,856.331,1713.031,856.325,1715.665z
			"/>
		<path style="fill:#C65447;" d="M856.325,1715.665c-0.007,2.628-1.3,4.437-3.502,5.649c-0.007,0.006-0.021,0.013-0.034,0.013
			c-4.335,2.005-11.365,2.296-18.978,2.079c-0.996-0.026-1.89-0.033-2.702-0.02c-0.21,0-0.42,0-0.623,0.007
			c-0.163,0-0.325,0.007-0.481,0.007c-7.694,0.189-6.881,2.492-21.504,3.745c-16.668,1.422-22.811-3.678-23.793-6.001
			c-0.826-1.971,6.326-4.206,14.318-6.76c2.242,0.867,12.929,4.579,25.574,2.182c11.121-2.093,22.168-7.627,30.112-9.476
			c0.095,0.298,0.183,0.597,0.264,0.894C855.654,1710.478,856.331,1713.031,856.325,1715.665z"/>
		<path style="fill:#E49963;" d="M506.955,1715.665c0.007,2.628,1.3,4.437,3.501,5.649c0.007,0.006,0.021,0.013,0.034,0.013
			c4.07,2.242,10.569,0.521,18.344,0.183c0.996-0.041,2.536,1.877,3.335,1.877c0.21,0,0.42,0,0.623,0.007
			c0.163,0,0.325,0.007,0.481,0.007c7.694,0.189,6.881,2.492,21.504,3.745c16.668,1.422,22.811-3.678,23.793-6.001
			c0.826-1.971-6.326-4.206-14.318-6.76c-0.386-0.121-0.772-0.25-1.164-0.372c-1.064-0.339-2.134-0.69-3.197-1.036
			c-9.516-3.163-18.883-6.915-21.22-16.546c-2.479-10.214,4.971-38.721,4.971-38.721l-26.414-2.852c0,0-2.546,29.801-4.206,39.086
			c-0.894,4.958-3.142,8.899-4.456,13.146c-0.095,0.298-0.183,0.597-0.264,0.894
			C507.625,1710.478,506.948,1713.031,506.955,1715.665z"/>
		<path style="fill:#E49963;" d="M684.925,1681.949c-1.467,7.336-11.924,6.112-23.606,3.258c-11.683-2.855-8.906,0.538-25.533-1.303
			c-16.626-1.84-21.664-8.039-22.17-10.512c-0.454-2.193,7.762-2.967,16.573-3.982c1.108-0.124,2.222-0.262,3.334-0.398
			c9.949-1.248,17.235-7.668,26.272-12.941c8.56-4.994,21.335-25.342,21.335-25.342l22.802,1.807c0,0-11.965,18.174-16.593,26.075
			c-2.722,4.647-2.578,10.794-2.238,15.539C685.277,1676.729,685.446,1679.365,684.925,1681.949z"/>
		<path style="fill:#C65447;" d="M661.319,1685.207c-11.683-2.855-8.906,0.538-25.533-1.303c-16.626-1.84-21.664-8.039-22.17-10.512
			c-0.454-2.193,7.762-2.967,16.573-3.982l0.082,0.17c0,0,9.971,7.069,23.811,7.401c11.28,0.273,23.228-2.958,31.018-2.832
			c0.176,2.579,0.345,5.216-0.176,7.8C683.458,1689.285,673.002,1688.062,661.319,1685.207z"/>
		<path style="fill:#FFB27D;" d="M735.662,1347.043c0,0-5.433-13.311-11.409-13.854c-5.976-0.543-24.99-3.531-26.349-0.814
			c-1.358,2.716,0,12.495,4.075,16.026c4.074,3.531,29.336,9.235,29.336,9.235L735.662,1347.043z"/>
		<path style="fill:#365DA4;" d="M772.309,1536.147l49.143,132.252c0,0,7.549,0.73,14.787-1.354c6.66-1.919,14.293-6.96,14.293-6.96
			s-12.191-126.985-34.54-153.398C793.642,1480.273,772.309,1536.147,772.309,1536.147z"/>
		<path style="fill:#466AA5;" d="M966.681,1482.645c0,0-141.208-47.747-172.7-37.588
			c-31.492,10.158-126.047,198.283-126.047,198.283s2.132,2.838,7.958,5.023c5.418,2.031,18.533,1.901,18.533,1.901
			s85.334-73.144,95.493-94.478c10.159-21.333,14.223-41.65,24.381-39.619c10.159,2.032,131.048,49.778,158.478,21.334
			c27.429-28.445,20.255-65.402,20.255-65.402L966.681,1482.645z"/>
		<path style="fill:#B74B42;" d="M880.388,1260.522c-2.254-4.656-4.776-12.925-6.01-27.667c0.19,1.464,2.731,20.056,9.88,30.58
			c29.367,19.281,85.655,83.659,84.541,95.859c0,0,19.827-33.628,20.168-33.829c0,0,36.574-46.507-6.772-73.147
			c-22.031-13.539-21.918-30.916-20.998-46.011c0.927-15.097-6.009-80.076-50.14-63.071c0,0-7.081-3.146-10.254-2.676
			c0,0,2.591,0.496,3.909,1.855c-5.116-0.303-12.431,0.076-18.535,3.546C869.998,1155.154,855.521,1237.635,880.388,1260.522z"/>
		<path style="fill:#FFB27D;" d="M885.997,1264.396c-0.147,0.066,14.179,7.505,24.956,4.558
			c10.136-2.765,16.759-15.907,16.619-15.937c-4.292-0.853-5.53-6.751-5.439-32.1l-1.941,0.382l-32.629,6.461
			c0,0,0.742,10.27,0.764,19.942C888.349,1255.824,887.856,1263.528,885.997,1264.396z"/>
		<path style="fill:#E58D5C;" d="M887.563,1227.76c0,0,0.742,10.27,0.764,19.942c18.259-0.515,27.91-17.171,31.865-26.403
			L887.563,1227.76z"/>
		<path style="fill:#B74B42;" d="M923.562,1217.746c0,0,9.568-15.118,11.865-28.046c1.64-9.23-3.062-43.441-37.44-38.515
			c0,0-9.985,0.984-19.371,7.323c-7.464,5.041-18.237,15.925-6.192,45.779l3.129,10.085L923.562,1217.746z"/>
		<path style="fill:#FFB27D;" d="M881.465,1236.92c0,0,43.2,0.713,43.229-26.197c0.03-26.909,5.626-44.94-21.956-46.533
			c-27.581-1.593-32.951,8.669-35.145,17.648C865.398,1190.817,870.228,1236.041,881.465,1236.92z"/>
		<path style="fill:#B74B42;" d="M883.063,1163.529c0,0,11.828,31.571,29.98,36.238c18.152,4.668,26.026-0.195,26.026-0.195
			s-13.924-11.061-16.813-30.369C922.257,1169.203,891.986,1148.504,883.063,1163.529z"/>
		<path style="fill:#B74B42;" d="M885.995,1166.093c0,0-8.833,7.049-10.987,13.901c-2.154,6.852-3.123,20.959-7.234,20.479
			c0,0-8.912-21.458,1.104-33.597C879.497,1154.005,885.995,1166.093,885.995,1166.093z"/>
		<path style="fill:#699DEE;" d="M982.195,1380.617c4.26-17.867-10.234-52.537-25.365-81.24
			c-13.728-26.015-27.978-47.119-29.259-46.36c-36.208,21.49-39.479,3.623-39.479,3.623s-32.889,4.368-42.202,20.4
			c-12.882,22.167-26.909,88.69-40.692,87.708c-6.326-0.453-69.991-24.382-69.991-24.382s-10.606,9.936-8.575,22.127
			c0,0,31.433,21.05,58.017,34.48c14.06,7.104,26.767,12.076,32.74,10.667c12.11-2.851,31.026-30.925,41.247-47.45
			c0.023-0.038,0.045-0.073,0.068-0.11c13.046,73.843-4.692,90.659,4.287,98.445c9.482,8.223,23.028-3.914,52.829,9.002
			c19.546,8.479,46.672,20.738,64.932,22.871c9.577,1.125,16.722-0.541,19.052-7.01
			C1006.577,1464.594,974.067,1414.678,982.195,1380.617z"/>
		<path style="fill:#FFFFFF;" d="M891.068,1220.607c0,0-0.805,3.418-9.309,2.892c0,0-7.141-0.441-6.922-4.198
			C874.837,1219.301,881.76,1216.627,891.068,1220.607z"/>
		<path style="fill:#3B76CA;" d="M999.804,1483.389c-2.33,6.469-9.476,8.135-19.052,7.01c-12.638-5.506-67.234-26.657-66.625-40.989
			c0.908-21.22,10.498-21.896,3.725-48.087c-5.439-21.03,45.008-60.132,53.054-68.632c15.131,28.703,15.548,30.06,11.289,47.927
			C974.067,1414.678,1006.577,1464.594,999.804,1483.389z"/>
		<path style="fill:#3B76CA;" d="M858.637,1360.19c-10.221,16.525-29.137,44.6-41.247,47.45c-5.974,1.409-18.68-3.563-32.74-10.667
			c10.261,2.648,20.23,2.574,29.916,1.64c10.498-1.017,13.546-13.885,30.139-33.188
			C855.467,1352.909,858.109,1356.059,858.637,1360.19z"/>
		<g>
			<path style="fill:#CC620A;" d="M905.564,1419.719l-12.546-31.749c-0.403-1.021-1.655-1.748-2.783-1.618l-17.812,2.049
				c-0.613,0.07-1.046,0.391-1.269,0.824l-0.023,0.001l-1.714,2.251l15.834,34.811l17.109-1.969l1.103-0.541l1.976-2.627
				l-0.005-0.012C905.702,1420.755,905.774,1420.251,905.564,1419.719z"/>
			<path style="fill:#EE9849;" d="M903.678,1422.229l-12.546-31.748c-0.403-1.02-1.655-1.748-2.783-1.618l-17.812,2.049
				c-1.128,0.13-1.721,1.07-1.318,2.09l12.546,31.749c0.403,1.02,1.655,1.747,2.783,1.617l17.812-2.049
				C903.488,1424.188,904.081,1423.248,903.678,1422.229z"/>
			<path style="fill:#CC620A;" d="M877.482,1393.044c-0.207-0.572-0.89-0.996-1.518-0.942l-4.196,0.361
				c-0.628,0.054-0.972,0.565-0.764,1.138c0.207,0.572,0.89,0.996,1.518,0.942l4.196-0.36
				C877.346,1394.129,877.69,1393.616,877.482,1393.044z"/>
		</g>
		<path style="fill:#FFB27D;" d="M909.217,1400.814c0,0-9.144-7.112-17.779-5.419c-8.635,1.693-12.869,7.62-12.53,10.329
			c0.338,2.709,4.91,10.328,11.514,11.006c6.604,0.677,25.398-4.063,25.398-4.063L909.217,1400.814z"/>
		<path style="fill:#699DEE;" d="M927.571,1253.017c0,0,35.21,2.169,47.399,19.169c17.158,23.931,46.958,121.631,38.831,143.98
			l-107.124-0.451c0,0-2.596-12.135,1.016-18.005c3.612-5.87,62.311-15.353,65.02-18.062c2.709-2.709-33.864-52.828-33.864-60.955
			C938.848,1310.565,927.571,1253.017,927.571,1253.017z"/>
		<path style="fill:#C65447;" d="M375.006,1467.696l80.192-6.772c0,0,130.874,0.572,143.064,17.305c0,0,19.776,12.388-6.637,77.225
			c-26.413,64.836-53.167,136.188-53.167,136.188s-5.926,0.813-13.094,0.232c-9.017-0.731-12.022-3.661-12.022-3.661
			s1.863-88.721,15.07-126.368c13.207-37.647,18.286-33.814-5.08-31.723c-23.365,2.092-89.063,18.476-134.341,9.807
			C354.799,1533.381,375.006,1467.696,375.006,1467.696z"/>
		<path style="fill:#163560;" d="M459.962,1143.236c0,0-26.822-13.732-39.239,21.486c0,0,11.966-14.9,18.287-14.223
			C445.331,1151.177,459.962,1143.236,459.962,1143.236z"/>
		<g>
			<path style="fill:#365DA4;" d="M506.955,1715.665c0.007,2.628,1.3,4.437,3.501,5.649c0.007,0.006,0.021,0.013,0.034,0.013
				c5.899,3.795,16.38-1.483,33.442,6.392c0.734,0.338,6.462-0.058,10.442-0.113c5.175-0.072,12.643,0.395,14.392,0.113
				c8.057-1.3,9.253-5.27,9.805-6.574c0.826-1.971-6.326-4.206-14.318-6.76c-2.242,0.867-12.929,4.579-25.574,2.182
				c-11.121-2.093-22.167-7.627-30.112-9.476c-0.095,0.298-0.183,0.597-0.264,0.894
				C507.625,1710.478,506.948,1713.031,506.955,1715.665z"/>
			<polygon style="fill:#365DA4;" points="509.617,1720.24 513.511,1727.521 521.977,1727.521 521.977,1722.188 			"/>
		</g>
		<path style="fill:#EE9849;" d="M592.727,1418.83c-0.129,0.745-0.339,1.463-0.644,2.133c-3.386,7.45-73.824,16.933-82.629,12.191
			c-3.935-2.12-9.658-37.637-14.779-76.263c-6.333-47.749-11.751-100.252-11.751-100.252s29.239,9.225,32.625,24.803
			c3.387,15.577,4.064,111.752,12.869,116.493c8.805,4.741,46.056,0.678,58.924,2.709
			C587.342,1400.645,594.075,1411.299,592.727,1418.83z"/>
		<path style="fill:#163560;" d="M484.842,1145.962c-5.474-4.396-13.418-3.849-18.535-3.546c1.318-1.359,3.909-1.855,3.909-1.855
			c-3.172-0.471-10.254,2.676-10.254,2.676c-44.131-17.005-49.398,63.026-11.47,72.17
			C463.193,1218.95,540.941,1191.024,484.842,1145.962z"/>
		<path style="fill:#E49963;" d="M485.022,1264.396c0.147,0.066-14.179,7.505-24.955,4.558c-10.137-2.765-16.76-15.907-16.62-15.937
			c4.293-0.853,5.531-6.751,5.439-32.1l1.941,0.382l32.629,6.461c0,0-0.742,10.27-0.764,19.942
			C482.67,1255.824,483.162,1263.528,485.022,1264.396z"/>
		<path style="fill:#D68D5D;" d="M483.456,1227.76c0,0-0.742,10.27-0.764,19.942c-18.259-0.515-27.91-17.171-31.865-26.403
			L483.456,1227.76z"/>
		<path style="fill:#163560;" d="M447.457,1217.746c0,0-9.568-15.118-11.865-28.046c-1.64-9.23,3.061-43.441,37.44-38.515
			c0,0,9.985,0.984,19.371,7.323c7.464,5.041,18.237,15.925,6.191,45.779l-3.128,10.085L447.457,1217.746z"/>
		<path style="fill:#E49963;" d="M489.554,1236.92c0,0-43.2,0.713-43.23-26.197c-0.03-26.909-5.626-44.94,21.955-46.533
			c27.581-1.593,32.952,8.669,35.146,17.648C505.62,1190.817,500.79,1236.041,489.554,1236.92z"/>
		<path style="fill:#163560;" d="M487.955,1163.529c0,0-11.828,31.571-29.98,36.238c-18.152,4.668-26.026-0.195-26.026-0.195
			s13.924-11.061,16.813-30.369C448.762,1169.203,479.033,1148.504,487.955,1163.529z"/>
		<path style="fill:#E58638;" d="M500.12,1296.499c-0.755-3.065,5.711-5.371,7.295-2.64c2.969,5.117,3.555,11.566,4.741,16.706
			c3.386,14.675,0,34.768,0,34.768L500.12,1296.499z"/>
		<path style="fill:#163560;" d="M485.023,1166.093c0,0,8.833,7.049,10.987,13.901c2.154,6.852,3.122,20.959,7.234,20.479
			c0,0,8.911-21.458-1.104-33.597C491.522,1154.005,485.023,1166.093,485.023,1166.093z"/>
		<path style="fill:#FFFFFF;" d="M479.951,1220.607c0,0,0.805,3.418,9.309,2.892c0,0,7.141-0.441,6.922-4.198
			C496.182,1219.301,489.258,1216.627,479.951,1220.607z"/>
		<path style="fill:#E58638;" d="M592.727,1418.83c-0.129,0.745-0.339,1.463-0.644,2.133c-3.386,7.45-73.824,16.933-82.629,12.191
			c-3.935-2.12-10.844-46.281-5.877-85.789c5.324,22.594,6.947,68.932,19.416,71.112
			C537.135,1420.957,574.25,1416.229,592.727,1418.83z"/>
		<path style="fill:#EE9849;" d="M514.798,1347.139c-17.508,84.404-2.858,97.36-11.955,105.657
			c-0.047,0.041-8.073,3.509-8.127,3.556c-9.482,8.223-9.719-1.74-39.52,11.176c-14.196,6.156-32.395,14.311-48.291,19.133
			c-5.987,1.809-11.642,3.156-16.641,3.738c-9.577,1.125-16.722-0.541-19.052-7.01c-6.772-18.795,25.737-68.711,17.61-102.771
			c-0.068-0.291-0.136-0.589-0.197-0.881c-0.589-2.979-0.697-6.399-0.393-10.152c1.517-19.004,13.519-46.624,25.954-70.207
			c13.728-26.015,27.979-47.119,29.259-46.36c36.208,21.49,39.479,3.623,39.479,3.623S520.772,1318.354,514.798,1347.139z"/>
		<path style="fill:#E58638;" d="M497.595,1455.166C497.548,1455.207,497.649,1455.119,497.595,1455.166
			c-9.482,8.223-12.598-0.555-42.398,12.361c-14.196,6.156-32.395,14.311-48.291,19.133c-7.219,2.402-12.969,3.59-16.641,3.738
			c-9.577,1.125-16.722-0.541-19.052-7.01c-6.772-18.795,25.737-68.711,17.61-102.771c-0.068-0.291,11.744-41.139,23.772-63.956
			c0.405-14.328,68.474-1.354,54.183,82.629C462.397,1425.034,493.836,1435.187,497.595,1455.166z"/>
		<path style="fill:#E49963;" d="M494.66,1459.456c0,0,13.32-3.161,19.415-0.678c6.096,2.483,18.287,8.805,17.158,12.191
			c-1.129,3.387-15.578,5.192-21.673,1.806c-6.096-3.386-10.611,0.903-18.061-1.58
			C484.049,1468.712,494.66,1459.456,494.66,1459.456z"/>
		<path style="fill:#EE9849;" d="M443.447,1253.017c0,0-49.131,0.656-57.937,24.361c-8.805,23.705-6.095,107.012,6.773,132.071
			c12.868,25.06,86.015,58.924,94.143,60.279c8.127,1.354,13.207-11.176,12.869-12.53c-0.339-1.354-76.872-63.326-76.534-69.761
			C423.101,1381.004,443.447,1253.017,443.447,1253.017z"/>
		<g>
			<path style="fill:#992B25;" d="M619.547,1378.127l-0.031,0.004c-0.424-0.513-1.097-0.814-1.937-0.729l-24.402,2.464
				c-1.545,0.155-3.006,1.494-3.246,2.975l-7.493,46.094c-0.126,0.773,0.118,1.425,0.588,1.861l-0.004,0.017l3.408,2.933l1.632,0.4
				l23.44-2.366l10.994-51.146L619.547,1378.127z"/>
			<path style="fill:#C65447;" d="M620.833,1380.205l-24.402,2.465c-1.545,0.155-3.006,1.494-3.247,2.975l-7.493,46.093
				c-0.241,1.48,0.826,2.563,2.371,2.408l24.402-2.464c1.545-0.156,3.005-1.495,3.246-2.976l7.494-46.093
				C623.445,1381.133,622.378,1380.05,620.833,1380.205z"/>
			<path style="fill:#992B25;" d="M619.641,1382.638l-5.713,0.744c-0.854,0.111-1.643,0.878-1.753,1.702
				c-0.11,0.826,0.5,1.41,1.354,1.299l5.713-0.744c0.854-0.111,1.644-0.878,1.753-1.703
				C621.105,1383.11,620.496,1382.526,619.641,1382.638z"/>
		</g>
	</g>
	<g>
		<path style="fill:#163560;" d="M3672.953,1726.59c0,0,65.149,5.584,67.93-6.768c0.37-1.643,9.531-63.326,9.531-63.326
			l11.237-78.811c0,0-19.05-2.303-26.479,20.119c-7.429,22.421-29.326,58.544-61.818,67.969
			C3639.172,1675.688,3672.953,1726.59,3672.953,1726.59z"/>
		<path style="fill:#E49963;" d="M3363.516,1407.816l5.806,2.061c0,0,15.201-25.711,46.269-15.314c0,0,12.409,5.193,5.049,11.986
			c-7.36,6.791-5.541,3.275-15.703,13.046c-10.163,9.771-24.041,14.671-33.599,11.373l-10.599-3.732L3363.516,1407.816z"/>
		<path style="fill:#163560;" d="M3101.729,1623.117c0,0,216.6-165.503,278.219-167.311s261.493,271.761,261.493,271.761h-74.845
			c0,0-131.884-70.188-178.278-136.89c-4.666-6.708-14.646-6.404-18.981,0.523c-23.979,38.325-86.685,132.321-127.228,136.366
			C3198.58,1731.91,3101.729,1623.117,3101.729,1623.117z"/>
		<path style="fill:#E49963;" d="M3122.463,1172.769c0,0-1.367,10.846-3.126,24.231c-2.345,17.393-5.472,38.985-7.522,45.729
			l-65.173,16.512l-4.788-47.389c0,0,16.319-32.731,16.221-79.045L3122.463,1172.769z"/>
		<g>
			<path style="fill:#4A75CB;" d="M3065.782,1271.405l92.604,113.438l32.384,39.668c0,0,58.002,10.862,88.449,13.509
				c21.974,1.899,92.117-7.052,92.117-7.052l-2.016-21.091c0,0-43.529-18.512-64.208-22.851c-21.097-4.42-74.39-16.448-74.39-16.448
				c-20.151-7.328-96.726-106.315-96.726-106.315L3065.782,1271.405z"/>
		</g>
		<path style="fill:#739AF0;" d="M3005.362,1676.476l189.388-15.456c0,0,0.524-3.796,1.4-10.168c0.271-1.97,0.425-4.031,0.479-6.182
			c0.434-18.917-7.005-44.423-10.204-69.495c-2.115-16.549-2.387-32.908,2.676-47.063c5.829-16.323,8.514-47.315,9.697-76.779
			c1.491-36.895,0.633-71.375,0.651-71.619c1.897-23.5-3.688-49.593-13.052-74.403c-18.475-48.924-52.922-76.624-69.107-93.049
			c0,0-19.765,4.879-71.144-10.535c-1.526-0.457-5.934,6.008-7.895,9.776c0,0-22.234,28.136-31.372,96.745
			C2998.701,1369.663,3005.362,1676.476,3005.362,1676.476z"/>
		<path style="fill:#4A75CB;" d="M3052.75,1336.402c0.371,8.613,76.574,251.187,67.238,269.082
			c-45.191,86.568,68.728,47.566,74.909,25.242c-2.2-14.907-5.606-83.444-0.23-103.644c4.457-16.75,2.948-46.286,4.132-75.75
			c-1.907-10.747-6.371-21.846-12.4-32.574C3158.082,1414.33,3049.912,1269.619,3052.75,1336.402z"/>
		<g>
			<path style="fill:#373480;" d="M3431.527,1383.71l-23.488-16.131c-0.2-0.138-0.411-0.241-0.629-0.315l-0.018-0.012l-4.432-1.809
				l-21.613,68.248l18.904,15.301l3.396,1.479c0.003,0.002,0.006,0.003,0.009,0.004l0.047,0.021l0.003-0.007
				c1.535,0.624,3.486-0.364,4.304-2.367l24.466-59.957C3433.178,1386.446,3432.777,1384.568,3431.527,1383.71z"/>
			<path style="fill:#575B9F;" d="M3427.441,1382.043l-23.487-16.131c-1.602-1.1-3.894-0.089-4.791,2.112l-23.392,57.324
				c-0.658,1.612-0.35,3.383,0.751,4.304l22.414,18.764c1.58,1.322,4.043,0.354,4.988-1.962l24.466-59.958
				C3429.091,1384.778,3428.691,1382.901,3427.441,1382.043z"/>
			<polygon style="fill:#E2E7F2;" points="3380.163,1422.303 3402.238,1440.782 3424.428,1386.405 3401.294,1370.519 			"/>
			<path style="fill:#373480;" d="M3387.893,1432.204c-0.846-0.346-1.781,0.261-2.088,1.353c-0.307,1.093,0.13,2.258,0.977,2.604
				c0.846,0.345,1.781-0.261,2.088-1.354C3389.176,1433.715,3388.739,1432.549,3387.893,1432.204z"/>
			<polygon style="fill:#CED4EA;" points="3402.295,1374.161 3382.818,1420.858 3401.949,1435.771 3421.08,1387.417 			"/>
			<polygon style="fill:#BCC5DD;" points="3403.006,1380.942 3389.36,1413.657 3402.763,1424.105 3416.166,1390.229 			"/>
		</g>
		<path style="fill:#E49963;" d="M3366.246,1440.895l11.911-0.391c0,0,11.874-24.62,39.049-12.945c0,0,10.903,5.688,4.893,12.037
			c-6.011,6.349-4.61,2.97-12.892,12.123c-8.28,9.153-19.979,13.338-28.344,9.648l-9.279-4.166L3366.246,1440.895z"/>
		<path style="fill:#739AF0;" d="M3070.354,1212.678c0,0,46.496,19.637,70.644,61.595c16.091,27.96,43.802,75.524,60.501,104.148
			c8.891,15.24,23.75,26.066,40.981,29.857l56.426,12.414l79.252,19.812c0,0,1.877,3.355,1.419,8.852
			c-0.65,7.797-5.751,9.364-5.751,9.364s-73.993,17.81-100.333,19.79c-64.897,4.879-95.659-3.627-105.193-7.133
			c-2.127-0.782-4.032-1.917-5.791-3.347c-9.938-8.076-48.07-40.024-68.145-70.544c-19.531-29.694-73.385-106.855-73.385-106.855
			L3070.354,1212.678z"/>
		<path style="fill:#1C468A;" d="M3005.362,1603.148c0,0-19.973,124.419,37.293,124.419s630.298,0,630.298,0
			s17.405-11.754,18.627-34.146c1.295-23.749-6.209-32.162-6.209-32.162s-225.632-7.854-271.445-23.205
			C3184.313,1561.109,3005.362,1603.148,3005.362,1603.148z"/>
		<path style="fill:#D68D5D;" d="M3122.463,1172.769c0,0-1.367,10.846-3.126,24.231c-60.213-17.563-61.263-64.193-61.263-64.193
			L3122.463,1172.769z"/>
		<path style="fill:#E49963;" d="M3131.938,1176.242c0,0-73.188,2.169-73.838-43.43s-10.532-76.029,36.169-79.342
			s56.03,13.958,59.948,29.125C3158.136,1097.763,3150.959,1174.503,3131.938,1176.242z"/>
		<path style="fill:#1C468A;" d="M3058.1,1132.813c0,0,18.969-61.948,84.085-58.723c38.451,1.905,33.083-42.656,33.083-42.656
			s-51.475-11.841-93.305-0.279C3010.37,1050.943,3051.687,1123.057,3058.1,1132.813z"/>
	</g>
	<path style="fill:#283250;" d="M3816.445,1735.309H180.771c-1.955,0-3.554-1.6-3.554-3.555v-0.678c0-1.955,1.6-3.554,3.554-3.554
		h3635.674c1.955,0,3.555,1.599,3.555,3.554v0.678C3820,1733.709,3818.4,1735.309,3816.445,1735.309z"/>
</g>
</svg>
