<?xml version="1.0" encoding="utf-8"?>
<!-- Generator: Adobe Illustrator 27.5.0, SVG Export Plug-In . SVG Version: 6.00 Build 0)  -->
<svg version="1.1" id="Слой_1" xmlns="http://www.w3.org/2000/svg" xmlns:xlink="http://www.w3.org/1999/xlink" x="0px" y="0px"
	 viewBox="0 0 4000 2000" style="enable-background:new 0 0 4000 2000;" xml:space="preserve">
<rect style="fill:#FFFFFF;" width="4000" height="2000"/>
<path style="fill:#E7F3FE;" d="M3651.109,1590.621c0,0,480.26-672.372,118.994-930.104
	c-204.282-145.737-414.15-187.517-599.669-342.77c-185.52-155.253-568.634-161.094-916.969,57.784
	c-348.335,218.877-646.565,77.095-935.363,46.006S265.233,490.784,287.341,821.54s-192.647,361.088-163.253,516.888
	c29.393,155.801,253.694,229.541,253.694,229.541L3651.109,1590.621z"/>
<path style="fill:#9CD499;" d="M287.341,1545.316c0,0-122.581-143.788-59.574-159.115c63.006-15.327,108.011,99.336,108.011,99.336
	s-36.004-67.304,0-60.98c36.004,6.323,72.406,120.76,72.406,120.76l90.689-12.658c0,0,90.267-62.336,137.603-62.556
	c47.337-0.219,51.523,34.901,51.523,34.901s107.359-78.586,146.096-74.854c38.737,3.73,60.41,87.697,60.41,87.697
	s14.278-118.21,51.808-110.089c37.53,8.12,179.074,110.089,179.074,110.089l359.958-1.512c0,0,29.552-266.235,86.558-249.353
	s21.099,144.45,21.099,144.45s38.631-83.063,61.271-70.812c22.64,12.251,0,89.528,0,89.528s31.442-21.733,57.044,0
	c25.603,21.732,56.24,25.842,56.24,25.842l120.167,23.606c0,0-26.376-149.287,10.419-147.007
	c36.795,2.279,42.625,67.819,42.625,67.819s-3.817-154.23,20.753-154.913c24.571-0.682,68.667,21.485,68.667,21.485l913.814,222.501
	c0,0,111.538-36.597,134.795-8.597c23.258,28.001,24.279,55.036,24.279,55.036l290.172,32.046c0,0,179.695-115.648,218.699-97.866
	c39.004,17.783-9,85.977-9,85.977s109.491-91.915,136.494-68.522c27.002,23.392-109.529,126.787-109.529,126.787
	s-590.929-24.799-656.903-35.125c-65.974-10.325-477.866-27.407-477.866-27.407l-923.241,26.481l-559.935-15.262L287.341,1545.316z"
	/>
<path style="fill:#C4E7F2;" d="M984.76,1508.383c-348.953-2.006-810.999-20.898-798.998,42.283
	c12.001,63.183,393.574,86.046,648.332,52.569c254.758-33.478,302.956,48.784,758.905,24.392
	c455.949-24.392,786.618-48.27,1086.33-46.181c299.712,2.09,836.766,102.219,974.779,50.776s-91.235-80.975-306.644-84.12
	c-215.409-3.146-313.383-32.337-466.916-41.164c-153.533-8.828-1305.997-45.256-1485.841-20.153
	C1214.866,1511.889,984.76,1508.383,984.76,1508.383z"/>
<g>
	<path style="fill:#9CD499;" d="M1395.853,1249.599c150.085-149.174,185.813-215.028,199.503-412.546s186.411-462.58,101.981-408.35
		c-84.429,54.23-213.279,248.32-179.333,409.676s18.288,212.125-2.147,253.955c-20.435,41.831-121.147,144.008-121.147,144.008
		L1395.853,1249.599z"/>
	<path style="fill:#74B570;" d="M1488.105,1150.359c0.507-0.621,1.003-1.238,1.506-1.858c7.931-15.29,48.223-94.27,54.331-132.249
		c6.78-42.159-21.611-143.532,7.714-225.556c29.326-82.024,36.899-156.15,47.787-213.284
		c14.375-75.434,81.68-142.16,120.223-152.222c-0.276-0.701-0.634-1.292-1.058-1.794l-10.023-0.65
		c-3.08,1.142-6.804,3.101-11.248,5.955c-84.429,54.231-213.279,248.32-179.333,409.676s18.288,212.125-2.147,253.955
		c-5.512,11.284-16.87,26.961-30.513,43.837L1488.105,1150.359z"/>
	<path style="fill:#9CD499;" d="M1318.167,1468.337c151.206-194.383,187.157-271.633,242.192-467.22
		s590.643-391.932,540.914-331.868c-49.729,60.065-181.603,204.534-327.787,256.615c-146.184,52.081-203.45,131.79-241.137,230.008
		c-37.687,98.218-182.113,292.317-182.113,292.317l-32.133,31.12L1318.167,1468.337z"/>
	<g>
		<path style="fill:#74B570;" d="M1383.3,1389.201c-0.567,0-1.142-0.16-1.651-0.497c-1.382-0.913-1.762-2.774-0.849-4.157
			c0.416-0.63,41.978-63.602,72.924-117.214c30.962-53.639,71.737-153.009,81.949-189.449c5.395-19.249,20.483-52.994,46.657-89.977
			c31.963-45.165,73.128-84.456,119.043-113.628c53.955-34.279,92.072-53.51,144.828-80.126
			c52.118-26.293,116.98-59.017,225.487-120.153c1.445-0.815,3.272-0.302,4.086,1.141s0.303,3.273-1.141,4.086
			c-108.627,61.204-173.558,93.961-225.729,120.283c-52.603,26.538-90.609,45.713-144.314,79.833
			c-106.839,67.878-153.987,167.501-163.14,200.159c-10.292,36.728-51.36,136.83-82.529,190.83
			c-31.039,53.771-72.698,116.891-73.115,117.522C1385.229,1388.729,1384.273,1389.201,1383.3,1389.201z"/>
	</g>
	<path style="fill:#9CD499;" d="M1468.634,1293.562c12.736-266.726,360.54-379.175,372.708-276.372
		c12.169,102.803-37.091,393.563-53.247,377.562c-16.156-16.002-51.741-316.045-59.185-306.759
		c-7.444,9.287-211.285,34.276-237.491,126.912c-26.205,92.636-13.727,259.753-13.727,259.753S1457.506,1526.604,1468.634,1293.562z
		"/>
	<g>
		<path style="fill:#74B570;" d="M1473.497,1482.604c-0.327,0-0.666-0.034-1.016-0.109c-3.63-0.771-7.647-4.332-9.378-37.051
			c-1.647-31.146-0.795-82.295,2.534-152.025l2.997,0.143l-2.997-0.143c2.24-46.905,14.892-91.695,37.603-133.126
			c20.02-36.521,47.358-69.714,81.255-98.656c58.136-49.637,133.118-83.022,191.027-85.053c40.544-1.404,65.604,13.252,68.8,40.253
			c5.171,43.688-0.212,127.202-14.4,223.398c-5.952,40.359-12.866,78.249-19.469,106.688c-10.934,47.097-16.656,49.889-18.811,50.94
			c-1.957,0.954-4.073,0.588-5.658-0.98c-8.954-8.869-21.183-83.821-37.479-188.739c-8.004-51.525-16.26-104.676-20.216-116.225
			c-4.255,1.997-12.943,4.205-29.766,8.358c-59.867,14.779-184.44,45.534-204.217,115.443
			c-25.763,91.071-13.746,257.047-13.622,258.713c0.034,0.446-0.033,0.894-0.195,1.311
			C1479.832,1477.438,1477.492,1482.604,1473.497,1482.604z M1780.802,982.49c-1.66,0-3.348,0.03-5.069,0.09
			c-101.112,3.546-294.666,113.525-304.101,311.125c-3.151,65.996-4.081,115.33-2.764,146.632
			c1.099,26.097,3.523,33.58,4.697,35.701c0.361-0.5,0.766-1.199,1.084-1.887c-0.849-12.177-11.282-171.101,13.884-260.063
			c20.727-73.265,147.586-104.585,208.552-119.636c14.134-3.489,27.487-6.786,29.565-8.434c0.887-1.034,2.215-1.464,3.488-1.123
			c2.488,0.664,4.286,1.144,10.896,38.869c3.844,21.939,8.485,51.821,13.399,83.458c6.236,40.15,13.306,85.658,19.739,120.993
			c8.567,47.05,13.224,60.26,15.462,63.676c1.724-2.024,6.729-10.663,15.119-46.952c6.557-28.364,13.419-66.074,19.321-106.183
			c14.046-95.443,19.388-178.141,14.288-221.216C1835.71,995.119,1814.828,982.49,1780.802,982.49z M1726.604,1086.073
			c-0.013,0.015-0.024,0.029-0.035,0.044C1726.581,1086.103,1726.593,1086.088,1726.604,1086.073z"/>
	</g>
	<path style="fill:#74B570;" d="M1529.063,1153.443c-10.022,11.089-18.209,23.471-24.908,36.219
		c52.359-68.864,209.938-90.214,222.863-98.865l2.62-2.411C1685.3,1056.279,1580.516,1096.514,1529.063,1153.443z"/>
	<g>
		<path style="fill:#74B570;" d="M1790.812,1390.798c-0.113,0-0.227-0.006-0.342-0.02c-1.646-0.187-2.829-1.672-2.643-3.318
			l10.078-88.942c0.641-5.656,1.298-11.406,1.962-17.228c9.498-83.139,21.318-186.607,10.853-238.411
			c-1.697-8.403-16.827-24.511-43.911-32.396c-36.782-10.707-115.06-11.447-226.003,103.919c-1.149,1.194-3.049,1.231-4.241,0.083
			c-1.194-1.148-1.231-3.047-0.083-4.241c113.133-117.643,193.918-116.607,232.005-105.521
			c29.788,8.672,46.068,26.838,48.114,36.969c10.653,52.731-0.729,152.37-10.771,240.279c-0.665,5.82-1.321,11.567-1.963,17.223
			l-10.078,88.942C1793.615,1389.667,1792.317,1390.798,1790.812,1390.798z"/>
	</g>
	<g>
		<path style="fill:#74B570;" d="M1767.554,1237.89c-0.457,0-0.921-0.105-1.356-0.326c-1.478-0.751-2.066-2.557-1.316-4.033
			c0.388-0.764,38.864-77.366,48.907-169.154c0.18-1.647,1.68-2.827,3.309-2.656c1.647,0.181,2.836,1.662,2.656,3.309
			c-10.167,92.916-49.13,170.447-49.522,171.22C1769.701,1237.289,1768.646,1237.89,1767.554,1237.89z"/>
	</g>
	<g>
		<path style="fill:#74B570;" d="M1761.101,1179.298c-0.459,0-0.925-0.105-1.361-0.328c-1.476-0.753-2.062-2.56-1.31-4.036
			c0.357-0.7,35.901-70.758,52.328-133.409c0.421-1.603,2.064-2.559,3.663-2.142c1.603,0.421,2.562,2.061,2.142,3.663
			c-16.595,63.289-52.428,133.908-52.787,134.614C1763.245,1178.699,1762.192,1179.298,1761.101,1179.298z"/>
	</g>
	<g>
		<path style="fill:#74B570;" d="M1859.823,800.709c-8.528,0-13.521-0.461-13.714-0.48c-1.648-0.164-2.851-1.634-2.687-3.282
			c0.164-1.648,1.647-2.844,3.281-2.688c0.745,0.074,75.395,6.901,146.239-34.666c1.43-0.839,3.268-0.36,4.106,1.069
			c0.838,1.429,0.359,3.267-1.069,4.105C1941.672,796.633,1885.16,800.709,1859.823,800.709z"/>
	</g>
	<g>
		<path style="fill:#74B570;" d="M1844.016,858.747c-52.675,0-83.961-10.926-85.649-11.53c-1.559-0.559-2.37-2.274-1.813-3.834
			c0.558-1.56,2.275-2.374,3.834-1.815c0.529,0.189,53.817,18.735,137.354,7.5c1.635-0.21,3.151,0.932,3.373,2.574
			c0.221,1.642-0.932,3.151-2.574,3.373C1878.503,857.709,1860.239,858.747,1844.016,858.747z"/>
	</g>
	<g>
		<path style="fill:#74B570;" d="M1758.041,912.205c-55.382,0-78.742-16.153-79.867-16.957c-1.349-0.963-1.661-2.837-0.698-4.185
			c0.964-1.349,2.836-1.66,4.185-0.698c0.302,0.213,31.69,21.648,107.362,14.266c1.641-0.164,3.116,1.044,3.276,2.694
			c0.161,1.648-1.045,3.116-2.694,3.276C1778.099,911.725,1767.592,912.205,1758.041,912.205z"/>
	</g>
</g>
<g>
	<path style="fill:#9CD499;" d="M1123.031,1418.652c-141.845-280.613-291.482-392.798-491.408-435.413
		c-199.926-42.615-223.439-70.257-223.439-70.257s151.476,218.522,273.511,254.625c122.035,36.103,267.755,31.415,307.47,63.521
		c39.715,32.105,112.633,174.207,112.633,174.207l24.587,19.223L1123.031,1418.652z"/>
	<path style="fill:#9CD499;" d="M1096.511,1450.824c-0.59-5.336-152.236-253.209-271.886-216.747
		c-119.649,36.461-133.777,74.751-216.546,97.95c-59.05,16.552-109.207,18.563-109.207,18.563s63.451,60.848,177.826,45.139
		c80.867-11.106,157.023-89.205,215.246-104.828c58.223-15.623,139.273,87.212,139.273,87.212l36.966,55.861L1096.511,1450.824z"/>
	<g>
		<path style="fill:#74B570;" d="M1115.285,1404.578c-1.143,0-2.234-0.656-2.735-1.766c-0.209-0.46-21.281-46.722-60.636-103.701
			c-36.264-52.505-95.917-125.117-174.166-172.876c-77.46-47.277-142.158-63.59-204.726-79.366
			c-59.23-14.936-115.176-29.042-174.231-68.626c-1.376-0.923-1.744-2.786-0.822-4.162c0.923-1.378,2.787-1.745,4.163-0.822
			c58.191,39.005,113.645,52.988,172.357,67.792c63.001,15.886,128.148,32.313,206.384,80.063
			c79.188,48.331,139.445,121.676,176.052,174.693c39.635,57.405,60.882,104.069,61.092,104.534c0.683,1.51,0.012,3.286-1.498,3.969
			C1116.118,1404.492,1115.698,1404.578,1115.285,1404.578z"/>
	</g>
	<g>
		<path style="fill:#74B570;" d="M1052.56,1378.752c-0.84,0-1.675-0.351-2.267-1.035c-75.315-86.865-135.271-129.937-188.681-135.55
			c-46.958-4.938-82.711,19.888-120.568,46.168c-9.558,6.636-19.442,13.497-29.505,19.839
			c-88.139,55.546-143.163,53.728-145.462,53.627c-1.655-0.075-2.936-1.479-2.861-3.133c0.075-1.656,1.464-2.924,3.133-2.861
			c0.542,0.026,55.642,1.708,141.99-52.709c9.951-6.271,19.779-13.094,29.283-19.691c38.798-26.933,75.437-52.379,124.617-47.206
			c55.017,5.781,116.213,49.501,192.587,137.587c1.085,1.251,0.95,3.146-0.302,4.231
			C1053.957,1378.511,1053.258,1378.752,1052.56,1378.752z"/>
	</g>
	<g>
		<path style="fill:#74B570;" d="M591.161,1083.418c-1.25,0-2.417-0.788-2.84-2.037c-0.532-1.569,0.308-3.272,1.877-3.805
			c80.771-27.398,155.964-17.216,156.715-17.11c1.64,0.232,2.782,1.75,2.55,3.39c-0.232,1.641-1.745,2.779-3.39,2.552
			c-0.735-0.104-74.581-10.069-153.948,16.851C591.806,1083.366,591.481,1083.418,591.161,1083.418z"/>
	</g>
	<g>
		<path style="fill:#74B570;" d="M897.388,1137.881c-0.504,0-1.016-0.128-1.484-0.396c-73.301-41.861-126.809-32.728-240.845-8.074
			c-1.617,0.349-3.216-0.679-3.566-2.299c-0.35-1.619,0.679-3.216,2.298-3.566c115.598-24.988,169.876-34.226,245.087,8.729
			c1.44,0.822,1.94,2.654,1.118,4.093C899.442,1137.337,898.43,1137.881,897.388,1137.881z"/>
	</g>
</g>
<g>
	<path style="fill:#9CD499;" d="M2933.241,1363.387c4.937-7.292,257.031-190.484,303.444-386.88
		c32.498-137.515,114.808-273.205,114.808-273.205s-159.438,61.13-224.729,275.343c-40.186,131.845-46.908,171.359-65.715,205.417
		c-18.808,34.058-143.47,183.608-143.47,183.608L2933.241,1363.387z"/>
	<g>
		<path style="fill:#74B570;" d="M2917.579,1370.67c-1.003,0-1.962-0.504-2.523-1.378c-0.709-1.102-0.62-2.536,0.219-3.543
			c1.245-1.493,124.693-149.718,143.148-183.138c12.285-22.248,19.221-46.42,34.416-99.382c7.78-27.117,17.464-60.866,31.055-105.46
			c14.979-49.145,36.189-94.294,63.04-134.193c21.492-31.937,46.626-60.599,74.702-85.189c47.873-41.93,87.136-57.254,88.783-57.886
			c1.197-0.459,2.555-0.107,3.377,0.878c0.822,0.984,0.928,2.382,0.263,3.479c-0.821,1.353-82.441,136.882-114.453,272.34
			c-17.346,73.397-65.025,153.403-141.715,237.795c-61.242,67.393-123.527,118.27-150.125,139.995
			c-6.045,4.938-11.271,9.207-12.093,10.156c-0.4,0.555-0.979,0.956-1.641,1.137l-15.662,4.283
			C2918.108,1370.636,2917.842,1370.67,2917.579,1370.67z M2935.726,1365.068c-0.011,0.017-0.022,0.032-0.033,0.048
			C2935.705,1365.1,2935.716,1365.083,2935.726,1365.068z M3344.188,709.836c-14.124,6.752-44.508,23.162-78.816,53.254
			c-43.443,38.103-102.259,106.583-135.738,216.429c-13.578,44.546-23.253,78.269-31.027,105.365
			c-15.324,53.409-22.317,77.786-34.932,100.627c-16.555,29.979-112.19,145.986-137.703,176.753l5.64-1.542
			c1.489-1.488,4.832-4.233,12.358-10.382c165.515-135.198,263.017-261.206,289.796-374.524
			C3261.501,858.458,3326.154,741.162,3344.188,709.836z"/>
	</g>
	<path style="fill:#9CD499;" d="M3001.221,1404.021c-9.815,10.959-20.873,31.231-31.679,54.646l-12.153-2.807
		c89.72-196.736,205.681-297.553,361.861-358.228c193.407-75.136,212.482-106.648,212.482-106.648s-116.32,243.53-232.739,299.504
		S3035.806,1365.409,3001.221,1404.021z"/>
	<path style="fill:#9CD499;" d="M3049.972,1434.181c-14.96-2.819-56.35,13.563-71.56,23.063v-16.713
		c39.07-41.521,84.762-72.676,128.969-62.792c111.554,24.94,127.078,58.854,204.107,74.264
		c54.955,10.993,100.801,9.354,100.801,9.354s-53.607,59.84-158.918,53.444C3178.912,1510.28,3104.108,1444.386,3049.972,1434.181z"
		/>
	<g>
		<path style="fill:#74B570;" d="M2948.62,1479.852c-0.438,0-0.882-0.097-1.302-0.299c-1.492-0.72-2.118-2.514-1.398-4.006
			c40.485-83.921,89.602-150.973,145.986-199.292c70.638-60.533,133.244-87.561,193.79-113.698
			c56.43-24.36,109.729-47.37,161.712-95.899c1.211-1.129,3.109-1.064,4.24,0.146c1.13,1.211,1.065,3.109-0.146,4.24
			c-52.743,49.238-106.507,72.448-163.428,97.021c-60.135,25.96-122.316,52.804-192.264,112.746
			c-54.966,47.104-104.929,115.343-144.486,197.343C2950.807,1479.227,2949.735,1479.852,2948.62,1479.852z"/>
	</g>
	<g>
		<path style="fill:#74B570;" d="M3344.265,1476.821c-17.133,0-62.344-4.001-128.825-39.163
			c-9.615-5.086-19.099-10.655-28.271-16.041c-32.386-19.018-62.964-36.978-99.247-35.261c-41.1,1.949-83.375,28.877-133.044,84.743
			c-1.102,1.238-2.998,1.349-4.235,0.249c-1.238-1.101-1.35-2.997-0.249-4.235c50.813-57.154,94.424-84.72,137.244-86.75
			c38.067-1.801,69.393,16.597,102.569,36.08c9.115,5.353,18.541,10.888,28.037,15.91c82.365,43.563,132.393,38.229,132.891,38.172
			c1.625-0.197,3.137,0.975,3.335,2.62c0.197,1.644-0.971,3.136-2.613,3.336C3351.415,1476.535,3348.84,1476.821,3344.265,1476.821z
			"/>
	</g>
	<g>
		<path style="fill:#74B570;" d="M3217.164,1199.628c-1.279,0-2.465-0.825-2.864-2.111c-0.491-1.583,0.394-3.264,1.976-3.755
			c0.734-0.228,74.415-22.625,159.78-8.281c1.634,0.275,2.736,1.822,2.462,3.456c-0.275,1.634-1.828,2.728-3.456,2.462
			c-83.975-14.111-156.286,7.869-157.007,8.094C3217.758,1199.584,3217.459,1199.628,3217.164,1199.628z"/>
	</g>
	<g>
		<path style="fill:#74B570;" d="M3077.563,1295.694c-0.875,0-1.743-0.381-2.336-1.115c-1.041-1.289-0.84-3.178,0.449-4.219
			c68.381-55.233,124.26-54.783,244.125-48.501c1.654,0.087,2.926,1.499,2.839,3.153c-0.088,1.655-1.535,2.91-3.153,2.839
			c-118.274-6.198-173.375-6.67-240.041,47.177C3078.891,1295.477,3078.225,1295.694,3077.563,1295.694z"/>
	</g>
</g>
<g>
	<g>
		<path style="fill:#3E6BAB;" d="M1496.535,1542.355H982.391c-19.843,0-36.078-16.235-36.078-36.078V631.276
			c0-19.843,16.235-36.078,36.078-36.078h514.144c19.843,0,36.078,16.235,36.078,36.078v875.001
			C1532.613,1526.12,1516.378,1542.355,1496.535,1542.355z"/>
		<path style="fill:#EBEFF2;" d="M1462.858,1486.142h-445.576c-17.887,0-32.522-14.635-32.522-32.522v-769.99
			c0-17.887,14.635-32.522,32.522-32.522h445.576c17.887,0,32.522,14.635,32.522,32.522v769.99
			C1495.381,1471.507,1480.746,1486.142,1462.858,1486.142z"/>
		<path style="fill:#2A538C;" d="M1286.936,1516.335h-106.653c-3.76,0-6.836-3.077-6.836-6.837c0-3.761,3.076-6.837,6.836-6.837
			h106.653c3.76,0,6.837,3.076,6.837,6.837C1293.773,1513.258,1290.696,1516.335,1286.936,1516.335z"/>
		<path style="fill:#2A538C;" d="M1261.361,632.157h-81.079c-3.76,0-6.836-3.077-6.836-6.837s3.076-6.836,6.836-6.836h81.079
			c3.76,0,6.836,3.076,6.836,6.836S1265.122,632.157,1261.361,632.157z"/>
		<path style="fill:#2A538C;" d="M1301.016,625.32c0,4.531-3.673,8.205-8.204,8.205s-8.205-3.673-8.205-8.205
			s3.673-8.205,8.205-8.205S1301.016,620.789,1301.016,625.32z"/>
	</g>
	<g>
		<path style="fill:#63ACC2;" d="M1440.476,781.036h-278.92c-2.039,0-3.707-1.668-3.707-3.707s1.668-3.706,3.707-3.706h278.92
			c2.039,0,3.707,1.668,3.707,3.706S1442.515,781.036,1440.476,781.036z"/>
		<g>
			<path style="fill:#D54A41;" d="M1396.558,773.623h-91.342c-6.691,0-11.674-6.175-10.26-12.715l9.053-41.874
				c1.045-4.831,5.317-8.279,10.26-8.279h77.456c5.332,0,9.816,3.997,10.428,9.293l4.833,41.874
				C1407.705,768.155,1402.832,773.623,1396.558,773.623z"/>
			<path style="fill:#F37168;" d="M1380.675,773.623h-84.815c-5.7,0-9.945-5.261-8.741-10.833l9.725-44.982
				c0.89-4.116,4.53-7.053,8.741-7.053h78.434c5.2,0,9.303,4.42,8.918,9.606l-3.342,44.982
				C1389.246,770.012,1385.357,773.623,1380.675,773.623z"/>
			<path style="fill:#F37168;" d="M1340.584,712.196c0,0-9.885-7.208-4.736-8.443c5.148-1.235,8.62,8.443,8.62,8.443
				s7.855-10.296,11.973-7.414c4.119,2.883-2.883,7.414-2.883,7.414H1340.584z"/>
			<path style="fill:#F37168;" d="M1397.52,718.271c-1.933,0-3.5,2.443-3.5,5.457c0,3.014,1.567,5.457,3.5,5.457
				c1.934,0,3.501-2.443,3.501-5.457C1401.021,720.715,1399.453,718.271,1397.52,718.271z M1397.52,726.509
				c-0.984,0-1.783-1.245-1.783-2.78c0-1.535,0.799-2.78,1.783-2.78c0.985,0,1.784,1.245,1.784,2.78
				C1399.303,725.264,1398.505,726.509,1397.52,726.509z"/>
			<g>
				<path style="fill:#F5CE5C;" d="M1239.14,804.122c-0.724,0-1.448-0.019-2.175-0.055c-28.842-1.452-34.911-27.323-34.911-32.357
					c0-1.154,0.512-1.869,0.941-2.265c1.038-0.957,2.236-0.859,3.898-0.724c3.104,0.253,10.374,0.847,27.318-1.95
					c25.664-4.234,57.862-37.884,66.14-54.067c0.629-1.229,2.131-1.717,3.364-1.087c1.229,0.628,1.716,2.135,1.087,3.364
					c-8.903,17.409-42.158,52.168-69.776,56.724c-16.075,2.653-23.886,2.348-27.61,2.073c1.348,6.183,7.228,24.157,29.801,25.294
					c19.03,0.97,37.915-12.739,50.402-21.806c6.093-4.424,10.118-7.347,12.992-7.817c2.265-0.371,8.798-0.307,21.118-0.153
					c13.119,0.167,29.446,0.371,43.348-0.157c22.317-0.849,25.379-3.229,25.767-3.697c3.744-6.219,4.279-31.755,4.168-41.066
					c-0.017-1.381,1.09-2.514,2.47-2.53c1.397,0,2.514,1.1,2.53,2.47c0.043,3.572,0.271,35.144-4.909,43.743
					c-3.621,6.01-27.569,6.815-73.437,6.238c-9.824-0.124-18.308-0.23-20.245,0.087c-1.705,0.279-6.361,3.66-10.864,6.93
					C1277.957,790.461,1259.142,804.121,1239.14,804.122z"/>
			</g>
			<path style="fill:#F37168;" d="M1305.021,728.771c4-3.738,7.93-15.505,8.519-18.016h-7.956c-4.211,0-7.851,2.938-8.741,7.053
				l-3.87,17.904C1300.091,732.85,1304.723,729.05,1305.021,728.771z"/>
		</g>
	</g>
	<g>
		<g>
			<path style="fill:#63ACC2;" d="M1234.016,1393.947c0,9.657-34.752,17.485-77.62,17.485c-42.868,0-77.619-7.828-77.619-17.485
				c0-12.909,19.609-23.367,77.619-23.367C1208.524,1370.58,1234.016,1381.365,1234.016,1393.947z"/>
			<ellipse style="fill:#9BD6E8;" cx="1156.397" cy="1386.758" rx="71.816" ry="16.178"/>
			<path style="fill:#4490A6;" d="M1159.011,1382.999h-5.229c-1.438,0-2.615-1.177-2.615-2.614v-125.498
				c0-1.438,1.177-2.614,2.615-2.614h5.229c1.438,0,2.614,1.176,2.614,2.614v125.498
				C1161.625,1381.822,1160.449,1382.999,1159.011,1382.999z"/>
			<path style="fill:#63ACC2;" d="M1136.624,867.606c0.382,18.856-21.02,34.317-37.688,36.277
				c-16.667,1.961-16.097-4.621,1.981,55.574c18.078,60.195,26.452,77.769-1.981,123.85
				c-28.433,46.082-14.356,182.365-14.356,206.876c0,24.512,139.925,17.648,143.77,8.824s23.13-150.202-8.387-210.798
				c-28.009-53.85-13.237-85.3-0.98-125.498c12.256-40.199,26.898-52.567,9.194-57.847c-36.166-10.785-47.503-20.165-48.621-35.297
				C1178.457,854.697,1136.452,859.109,1136.624,867.606z"/>
			<path style="fill:#9BD6E8;" d="M1177.967,868.833c0,4.197-8.999,7.598-20.1,7.598s-20.099-3.401-20.099-7.598
				c0-4.196,8.999-7.598,20.099-7.598S1177.967,864.636,1177.967,868.833z"/>
			<path style="fill:#4490A6;" d="M1159.338,870.221h-2.941c-2.067,0-3.758-1.691-3.758-3.758v-33.009
				c0-2.067,1.691-3.758,3.758-3.758h2.941c2.067,0,3.758,1.691,3.758,3.758v33.009
				C1163.096,868.53,1161.405,870.221,1159.338,870.221z"/>
		</g>
		<path style="fill:#F37168;" d="M1090.356,1104.209c-15.034,45.102-14.38,158.181-14.38,158.181s32.682,9.15,69.939,9.15
			s53.013-1.559,53.013-1.559l4.967-74.263c0,0,9.1,73.748,9.589,73.779c3.922,0.244,15.367-1.226,29.822-3.187
			c0-41.18-2.615-132.688-13.073-152.298c-10.458-19.609-81.705-44.744-81.705-44.744L1090.356,1104.209z"/>
		<path style="opacity:0.5;fill:#D54A41;" d="M1108.983,1149.311c27.913-4.707,62.424-25.004,62.424-25.004
			s27.011,14.512,64.327,9.854c-1.532-9.044-3.35-16.117-5.5-20.147c-2.464-4.62-44.142-50.072-51.628-54.905l-44.456,10.161
			l-43.794,34.939c-4.158,12.473-7.114,30.147-9.217,49.188C1086.134,1152.855,1094.719,1151.715,1108.983,1149.311z"/>
		<path style="fill:#F37168;" d="M1200.238,894.081c3.239,34.075-27.687,85.583-34.407,98.438
			c-2.562,4.9-15.34,103.438,6.721,122.312c18.748,16.039,65.795,6.863,65.795,6.863s-24.126-65.691-23.146-92.163
			c0.98-26.473,23.146-122.557,23.146-122.557L1200.238,894.081z"/>
		<path style="fill:#F37168;" d="M1115.272,895.849c5.042,53.504,37.669,99.121,37.669,99.121s21.08,104.173-3.431,117.41
			c-24.512,13.236-70.103,5.883-70.103,5.883s31.865-68.142,24.512-100.497c-7.354-32.355-19.609-112.752-19.609-112.752
			L1115.272,895.849z"/>
		<path style="fill:#D54A41;" d="M1106.652,898.167l4.27,39.692l13.587,10.785l-6.793,19.609c0,0,27.964,20.202,33.511,41.772
			c5.547,21.569,9.641,59.214,9.641,59.214c-0.117,1.413-0.418-47.232,12.42-69.367c12.335-21.269,30.609-34.561,30.609-34.561
			l-6.201-15.688l15.055-12.746l-4.431-40.063l-14.186-5.657c0,0-2.945,18.836-17.824,53.563
			c-14.879,34.727-16.84,66.52-16.84,66.52s-4.534-35.259-18.783-65.539c-13.073-27.779-20.297-51.229-20.297-51.229
			L1106.652,898.167z"/>
		<path style="fill:#D54A41;" d="M1125.386,1065.072l-29.168,7.599c0,0-18.383,17.648-13.727,19.119
			c4.657,1.471,20.423-1.716,29.576-10.295C1121.219,1072.916,1125.386,1065.072,1125.386,1065.072z"/>
		<path style="fill:#D54A41;" d="M1193.262,1065.072l29.168,7.599c0,0,18.384,17.648,13.727,19.119s-20.423-1.716-29.575-10.295
			C1197.429,1072.916,1193.262,1065.072,1193.262,1065.072z"/>
		<path style="fill:#F37168;" d="M1084.31,905.013c-6.7-0.164-5.393-1.471-9.314,42.323
			c-3.922,43.793-30.395,149.029-36.604,180.404c-6.209,31.374-6.209,31.374-6.209,31.374s15.688,3.922,22.224,2.941
			c6.537-0.98,26.146-69.879,29.904-92.786s13.038-64.949,15.425-72.035C1102.122,990.149,1084.31,905.013,1084.31,905.013z"/>
		<path style="fill:#F37168;" d="M1237.423,906.648c6.7-0.164,5.393-1.471,9.314,42.323c3.922,43.794,30.394,149.03,36.604,180.404
			c6.209,31.375,6.209,31.375,6.209,31.375s-15.687,3.922-22.224,2.941c-6.536-0.98-26.146-69.879-29.904-92.786
			c-3.758-22.908-15.564-65.977-17.951-73.062C1217.084,990.757,1237.423,906.648,1237.423,906.648z"/>
	</g>
	<g>
		<path style="fill:#D54A41;" d="M1155.802,761.507h-104.88c-9.705,0-17.645-7.94-17.645-17.645v-29.353
			c0-9.705,7.94-17.645,17.645-17.645h104.88c9.705,0,17.645,7.94,17.645,17.645v29.353
			C1173.447,753.567,1165.507,761.507,1155.802,761.507z"/>
		<g>
			<g>
				<path style="fill:#FFFFFF;" d="M1117.948,733.514h-34.276c-1.191,0-2.216-0.84-2.451-2.007l-3.529-17.546
					c-0.273-1.354,0.604-2.672,1.958-2.944c1.343-0.276,2.672,0.604,2.944,1.958l3.125,15.54h32.229c1.381,0,2.5,1.119,2.5,2.5
					C1120.448,732.394,1119.329,733.514,1117.948,733.514z"/>
			</g>
			<g>
				<path style="fill:#FFFFFF;" d="M1119.905,715.967h-39.763c-1.381,0-2.5-1.119-2.5-2.5c0-1.381,1.119-2.5,2.5-2.5h39.763
					c1.381,0,2.5,1.119,2.5,2.5C1122.405,714.848,1121.286,715.967,1119.905,715.967z"/>
			</g>
			<g>
				<path style="fill:#FFFFFF;" d="M1118.594,724.773h-35.524c-2.209,0-4-1.791-4-4c0-2.209,1.791-4,4-4h35.524c2.209,0,4,1.791,4,4
					C1122.594,722.982,1120.803,724.773,1118.594,724.773z"/>
			</g>
			<g>
				<path style="fill:#FFFFFF;" d="M1115.662,745.229h-29.661c-1.381,0-2.5-1.119-2.5-2.5c0-1.381,1.119-2.5,2.5-2.5h27.694
					l8.543-35.269c0.271-1.122,1.275-1.912,2.43-1.912h13.564c1.381,0,2.5,1.119,2.5,2.5c0,1.381-1.119,2.5-2.5,2.5h-11.598
					l-8.543,35.269C1117.82,744.438,1116.816,745.229,1115.662,745.229z"/>
			</g>
			<circle style="fill:#FFFFFF;" cx="1090.221" cy="750.025" r="4.627"/>
			<path style="fill:#FFFFFF;" d="M1116.069,750.025c0,2.555-2.071,4.627-4.626,4.627s-4.627-2.071-4.627-4.627
				s2.072-4.627,4.627-4.627S1116.069,747.47,1116.069,750.025z"/>
		</g>
	</g>
	<g>
		<path style="fill:#D54A41;" d="M1436.065,1411.433h-104.88c-9.705,0-17.645-7.94-17.645-17.646v-29.353
			c0-9.705,7.94-17.646,17.645-17.646h104.88c9.705,0,17.645,7.94,17.645,17.646v29.353
			C1453.71,1403.492,1445.77,1411.433,1436.065,1411.433z"/>
		<g>
			<g>
				<path style="fill:#FFFFFF;" d="M1398.211,1383.438h-34.276c-1.19,0-2.216-0.84-2.451-2.007l-3.529-17.546
					c-0.272-1.354,0.604-2.672,1.958-2.944c1.343-0.271,2.671,0.604,2.944,1.958l3.125,15.539h32.229c1.381,0,2.5,1.119,2.5,2.5
					S1399.592,1383.438,1398.211,1383.438z"/>
			</g>
			<g>
				<path style="fill:#FFFFFF;" d="M1400.168,1365.893h-39.763c-1.381,0-2.5-1.119-2.5-2.5s1.119-2.5,2.5-2.5h39.763
					c1.381,0,2.5,1.119,2.5,2.5S1401.549,1365.893,1400.168,1365.893z"/>
			</g>
			<g>
				<path style="fill:#FFFFFF;" d="M1398.856,1374.699h-35.523c-2.209,0-4-1.791-4-4s1.791-4,4-4h35.523c2.209,0,4,1.791,4,4
					S1401.065,1374.699,1398.856,1374.699z"/>
			</g>
			<g>
				<path style="fill:#FFFFFF;" d="M1395.926,1395.153h-29.662c-1.381,0-2.5-1.119-2.5-2.5s1.119-2.5,2.5-2.5h27.695l8.542-35.27
					c0.271-1.121,1.275-1.911,2.43-1.911h13.564c1.381,0,2.5,1.119,2.5,2.5s-1.119,2.5-2.5,2.5h-11.598l-8.542,35.27
					C1398.084,1394.363,1397.08,1395.153,1395.926,1395.153z"/>
			</g>
			<path style="fill:#FFFFFF;" d="M1375.11,1399.95c0,2.556-2.071,4.627-4.627,4.627c-2.555,0-4.626-2.071-4.626-4.627
				s2.072-4.627,4.626-4.627C1373.039,1395.323,1375.11,1397.395,1375.11,1399.95z"/>
			<path style="fill:#FFFFFF;" d="M1396.332,1399.95c0,2.556-2.071,4.627-4.626,4.627s-4.626-2.071-4.626-4.627
				s2.071-4.627,4.626-4.627S1396.332,1397.395,1396.332,1399.95z"/>
		</g>
	</g>
	<g>
		<path style="fill:#9BD6E8;" d="M1440.3,961.612h-15.129c-6.017,0-10.939-4.923-10.939-10.939v-15.129
			c0-6.017,4.923-10.94,10.939-10.94h15.129c6.017,0,10.939,4.923,10.939,10.94v15.129
			C1451.239,956.69,1446.316,961.612,1440.3,961.612z"/>
		<path style="fill:#3E6BAB;" d="M1440.3,1025.968h-15.129c-6.017,0-10.939-4.922-10.939-10.938v-15.13
			c0-6.017,4.923-10.939,10.939-10.939h15.129c6.017,0,10.939,4.922,10.939,10.939v15.13
			C1451.239,1021.046,1446.316,1025.968,1440.3,1025.968z"/>
		<path style="fill:#F37168;" d="M1440.3,897.256h-15.129c-6.017,0-10.939-4.923-10.939-10.94v-15.129
			c0-6.017,4.923-10.94,10.939-10.94h15.129c6.017,0,10.939,4.923,10.939,10.94v15.129
			C1451.239,892.333,1446.316,897.256,1440.3,897.256z"/>
		<g>
			<path style="fill:#BDCCD4;" d="M1384.797,964.112h-15.129c-7.41,0-13.439-6.029-13.439-13.439v-15.129
				c0-7.41,6.029-13.439,13.439-13.439h15.129c7.41,0,13.439,6.029,13.439,13.439v15.129
				C1398.236,958.083,1392.207,964.112,1384.797,964.112z M1369.668,927.104c-4.653,0-8.439,3.786-8.439,8.439v15.129
				c0,4.653,3.786,8.439,8.439,8.439h15.129c4.653,0,8.439-3.786,8.439-8.439v-15.129c0-4.653-3.786-8.439-8.439-8.439H1369.668z"/>
		</g>
		<g>
			<path style="fill:#BDCCD4;" d="M1384.797,1028.468h-15.129c-7.41,0-13.439-6.028-13.439-13.438v-15.13
				c0-7.41,6.029-13.439,13.439-13.439h15.129c7.41,0,13.439,6.029,13.439,13.439v15.13
				C1398.236,1022.44,1392.207,1028.468,1384.797,1028.468z M1369.668,991.46c-4.653,0-8.439,3.786-8.439,8.439v15.13
				c0,4.653,3.786,8.438,8.439,8.438h15.129c4.653,0,8.439-3.785,8.439-8.438v-15.13c0-4.653-3.786-8.439-8.439-8.439H1369.668z"/>
		</g>
		<g>
			<path style="fill:#BDCCD4;" d="M1384.797,899.756h-15.129c-7.41,0-13.439-6.029-13.439-13.44v-15.129
				c0-7.41,6.029-13.44,13.439-13.44h15.129c7.41,0,13.439,6.029,13.439,13.44v15.129
				C1398.236,893.727,1392.207,899.756,1384.797,899.756z M1369.668,862.748c-4.653,0-8.439,3.786-8.439,8.44v15.129
				c0,4.653,3.786,8.44,8.439,8.44h15.129c4.653,0,8.439-3.786,8.439-8.44v-15.129c0-4.653-3.786-8.44-8.439-8.44H1369.668z"/>
		</g>
		<g>
			<path style="fill:#D54A41;" d="M1377.232,888.962c-0.143,0-0.285-0.008-0.429-0.023c-1.199-0.129-2.276-0.792-2.931-1.806
				l-9.821-15.196c-1.199-1.855-0.667-4.331,1.188-5.53c1.854-1.2,4.331-0.667,5.53,1.188l7.143,11.052l23.144-22.995
				c1.566-1.556,4.099-1.549,5.657,0.018c1.557,1.567,1.549,4.1-0.019,5.657l-26.644,26.473
				C1379.299,888.548,1378.283,888.962,1377.232,888.962z"/>
		</g>
	</g>
	<path style="fill:#7396C7;" d="M1446.682,1256.624h-116.039c-2.507,0-4.558-2.051-4.558-4.558s2.051-4.558,4.558-4.558h116.039
		c2.507,0,4.558,2.051,4.558,4.558S1449.188,1256.624,1446.682,1256.624z"/>
	<path style="fill:#7396C7;" d="M1446.682,1276.099h-116.039c-2.507,0-4.558-2.052-4.558-4.559s2.051-4.558,4.558-4.558h116.039
		c2.507,0,4.558,2.051,4.558,4.558S1449.188,1276.099,1446.682,1276.099z"/>
	<path style="fill:#7396C7;" d="M1446.682,1295.546h-78.791c-2.507,0-4.558-2.051-4.558-4.558s2.051-4.559,4.558-4.559h78.791
		c2.507,0,4.558,2.052,4.558,4.559S1449.188,1295.546,1446.682,1295.546z"/>
	<g>
		<path style="fill:#4D4D4D;" d="M1495.381,683.629c0-9.34-3.996-17.789-10.357-23.735L984.76,1346.306v107.313
			c0,17.888,14.635,32.522,32.522,32.522h72.862l405.236-549.239V683.629z"/>
		<polygon style="fill:#4D4D4D;" points="1495.381,1152.867 1495.381,994.466 1137.042,1486.142 1252.487,1486.142 		"/>
	</g>
</g>
<g>
	<g>
		<g>
			<path style="fill:#D54A41;" d="M2370.048,695.995c-0.21,0-0.424-0.044-0.627-0.138c-0.752-0.347-1.081-1.238-0.734-1.99
				c23.259-50.463,54.083-129.514,43.675-140.465c-3.114-3.274-15.31-4.205-62.013,26.361c-26.998,17.67-52.529,37.482-52.784,37.68
				c-0.653,0.508-1.597,0.391-2.105-0.263c-0.508-0.654-0.391-1.597,0.264-2.105c0.256-0.199,25.884-20.086,52.983-37.822
				c15.95-10.44,29.296-18.111,39.665-22.8c13.706-6.198,22.266-7.219,26.164-3.118c3.785,3.982,3.805,13.648,0.061,29.551
				c-2.884,12.249-8.009,28.188-15.23,47.374c-12.616,33.515-27.334,65.516-27.954,66.862
				C2371.158,695.671,2370.615,695.995,2370.048,695.995z"/>
		</g>
		<path style="fill:#3E6BAB;" d="M2316.384,585.95c0,0,48.113,71.22,61.992,80.473c13.879,9.252,13.879,9.252,13.879,9.252
			l-51.124,135.16l-39.552,5.693c0,0-6.477,4.616-48.113-21.393c-41.637-26.008-55.567-93.737-55.567-93.737L2316.384,585.95z"/>
		<path style="fill:#2E5B9A;" d="M2350.105,690.562c-1.306,2.053-3.428,3.042-4.741,2.207c-1.313-0.834-1.318-3.176-0.013-5.229
			c1.305-2.054,3.428-3.042,4.74-2.207C2351.404,686.167,2351.41,688.508,2350.105,690.562z"/>
		<g>
			<path style="fill:#D54A41;" d="M2348.767,688.344c-0.252,0-0.508-0.063-0.742-0.197c-0.72-0.411-0.971-1.327-0.56-2.046
				c0.187-0.328,18.915-33.225,35.685-66.808c30.958-61.996,27.509-70.639,25.714-71.811c-0.808-0.528-2.205-0.276-3.233,0.027
				c-22.573,6.681-100.275,97.803-102.652,103.174c-0.328,0.742-1.201,1.12-1.949,0.816c-0.751-0.305-1.138-1.118-0.856-1.877
				c1.86-5.025,79.649-96.759,104.151-104.847c2.591-0.855,4.672-0.79,6.181,0.195c4.029,2.632,3.1,11.15-3.013,27.617
				c-4.49,12.094-11.778,28.262-21.662,48.056c-16.807,33.656-35.571,66.616-35.759,66.945
				C2349.794,688.072,2349.287,688.344,2348.767,688.344z"/>
		</g>
		<g>
			<path style="fill:#497EC9;" d="M2341.132,635.602c-0.476,0-0.944-0.226-1.235-0.648c-0.471-0.682-0.3-1.616,0.382-2.086
				c26.346-18.201,67.705-59.099,68.924-75.126c0.146-1.905-0.287-3.306-1.322-4.282c-2.047-1.932-11.664-4.44-56.564,13.955
				c-24.991,10.239-48.833,22.019-49.07,22.137c-0.741,0.367-1.644,0.064-2.01-0.679c-0.368-0.742-0.064-1.642,0.678-2.01
				c0.239-0.118,24.164-11.94,49.252-22.219c51.549-21.123,57.739-15.284,59.773-13.366c1.712,1.615,2.471,3.866,2.256,6.691
				c-1.438,18.897-46.275,60.831-70.211,77.367C2341.724,635.516,2341.426,635.602,2341.132,635.602z"/>
		</g>
		<path style="fill:#F5CE5C;" d="M2316.384,560.234l-165.622,59.372c0,0,10.178,44.966,37.011,90.303
			c26.833,45.338,33.249,50.889,33.249,50.889l135.148-116.89L2316.384,560.234z"/>
		<path style="fill:#DBB64C;" d="M2365.879,639.59c0,0-90.207,134.163-112.413,134.163s-29.857-7.693-38.808-21.115
			c-8.951-13.422,136.848-118.536,136.848-118.536L2365.879,639.59z"/>
		<path style="fill:#DBB64C;" d="M2316.384,560.234l49.495,79.356c0,0-12.066-0.639-14.373-5.489
			C2349.2,629.252,2316.384,560.234,2316.384,560.234z"/>
		<path style="fill:#497EC9;" d="M2373.813,668.273c0,0-81.708,148.254-76.971,148.254s42.474-0.892,44.289-5.693
			c1.816-4.8,51.124-135.16,51.124-135.16L2373.813,668.273z"/>
		<path style="fill:#DBB64C;" d="M2302.579,578.049c0.917,1.228-0.039,3.495-2.137,5.062c-2.099,1.568-4.543,1.843-5.46,0.615
			c-0.918-1.228,0.038-3.494,2.137-5.062C2299.217,577.097,2301.661,576.821,2302.579,578.049z"/>
		<path style="fill:#DBB64C;" d="M2323.089,624.654c0.917,1.228-0.039,3.495-2.137,5.062c-2.099,1.568-4.542,1.843-5.46,0.615
			c-0.918-1.228,0.039-3.494,2.137-5.062C2319.727,623.701,2322.171,623.426,2323.089,624.654z"/>
		<g>
			<path style="fill:#497EC9;" d="M2321.418,627.633c-0.491,0-0.893-0.121-1.242-0.356c-0.688-0.461-0.873-1.392-0.413-2.081
				c0.396-0.589,1.139-0.809,1.772-0.571c3.143-0.28,21.871-12.494,44.243-29.933c24.35-18.979,40.552-34.351,42.283-40.118
				c0.073-0.243,0.222-0.822,0.021-0.955c-8.246-5.447-44.197,0.568-105.926,26.288c-0.766,0.317-1.644-0.044-1.962-0.808
				c-0.318-0.765,0.043-1.643,0.808-1.962c55.181-22.991,97.86-33.204,108.734-26.021c1.009,0.667,1.52,1.749,1.438,3.048
				c-0.434,6.967-20.253,24.269-36.804,37.557c-19.174,15.394-40.19,30.247-48.886,34.549
				C2323.615,627.197,2322.353,627.633,2321.418,627.633z"/>
		</g>
	</g>
	<g>
		<g>
			<path style="fill:#497EC9;" d="M3053.667,616.352c-0.318,0-0.639-0.1-0.911-0.309c-10.988-8.416-31.216-29.247-48.097-49.532
				c-14.618-17.567-31.173-39.989-27.018-47.041c1.267-2.152,4.631-7.866,61.847,4.017c27.799,5.773,55.149,12.998,55.422,13.07
				c0.801,0.212,1.278,1.033,1.066,1.834c-0.211,0.801-1.031,1.276-1.834,1.066c-0.272-0.072-27.555-7.279-55.275-13.035
				c-51.125-10.617-57.811-6.841-58.642-5.429c-1.824,3.097,4.084,16.374,26.74,43.6c16.485,19.811,36.955,40.906,47.614,49.069
				c0.657,0.504,0.782,1.445,0.278,2.103C3054.563,616.15,3054.118,616.352,3053.667,616.352z"/>
		</g>
		<g>
			<path style="fill:#497EC9;" d="M3075.095,608.706c-0.298,0-0.598-0.088-0.859-0.271c-9.099-6.37-88.902-62.734-89.085-80.24
				c-0.019-1.784,0.703-3.262,2.086-4.273c15.046-11.004,98.41,23.133,107.865,27.062c0.766,0.318,1.128,1.196,0.81,1.961
				c-0.316,0.765-1.195,1.127-1.96,0.81c-25.262-10.497-93.358-35.884-104.943-27.411c-0.602,0.44-0.865,1.001-0.857,1.821
				c0.141,13.51,63.431,60.751,87.806,77.814c0.679,0.475,0.844,1.411,0.368,2.089
				C3076.033,608.483,3075.567,608.706,3075.095,608.706z"/>
		</g>
		<path style="fill:#F39892;" d="M3176.023,711.76c0,0,34.125,15.389,42.008,9.082c7.882-6.307,51.647-105.58,56.598-154.946
			c4.949-49.366-199.533-33.899-199.533-33.899s10.178,17.719-27.758,64.969S3176.023,711.76,3176.023,711.76z"/>
		<g>
			<path style="fill:#F37168;" d="M3036.482,635.602c-0.478,0-0.946-0.228-1.237-0.651c-0.168-0.244-16.931-24.691-32.653-50.613
				c-32.178-53.053-28.759-60.486-27.635-62.928c0.715-1.555,2.035-2.478,3.816-2.669c19.604-2.093,97.632,58.388,100.944,60.964
				c0.654,0.509,0.771,1.451,0.263,2.105c-0.508,0.653-1.452,0.772-2.104,0.263c-27.724-21.563-84.024-61.938-98.782-60.349
				c-0.731,0.078-1.141,0.35-1.412,0.94c-4.681,10.175,33.339,71.71,60.036,110.589c0.469,0.683,0.296,1.617-0.388,2.086
				C3037.071,635.516,3036.775,635.602,3036.482,635.602z"/>
		</g>
		<path style="fill:#9BD6E8;" d="M3075.096,560.234l142.936,116.219c0,0-71.69,100.075-124.43,118.681
			c-72.17-69.496-105.48-155.545-105.48-155.545L3075.096,560.234z"/>
		<path style="fill:#63ACC2;" d="M3082.498,552.369c2.775,3.948,141.504,87.222,141.504,87.222s3.568,24.143-5.971,36.863
			c-9.54,12.721-142.936-116.219-142.936-116.219L3082.498,552.369z"/>
		<path style="fill:#F37168;" d="M3075.096,525.132c6.477,2.501,199.533,0,199.533,0s5.228,32.765,0,40.765
			c-5.229,8-199.533-20.382-199.533-20.382V525.132z"/>
		<path style="fill:#63ACC2;" d="M3014.834,659.743c-1.291-2.617-0.955-5.42,0.749-6.26s4.131,0.601,5.421,3.219
			c1.29,2.617,0.954,5.419-0.749,6.259C3018.551,663.801,3016.123,662.361,3014.834,659.743z"/>
		<path style="fill:#63ACC2;" d="M3069.192,600.989c-1.29-2.617-0.954-5.42,0.749-6.26c1.704-0.84,4.131,0.601,5.422,3.218
			c1.29,2.618,0.954,5.42-0.75,6.26C3072.909,605.047,3070.482,603.606,3069.192,600.989z"/>
		<g>
			<path style="fill:#F37168;" d="M3017.729,657.969c-0.271,0-0.546-0.073-0.792-0.227c-10.099-6.292-32.882-73.533-36.522-114.516
				c-1.473-16.563,0.288-27.225,5.231-31.688c0.863-0.78,1.994-1.118,3.343-1.002c15.979,1.357,75.882,76.895,82.66,85.503
				c0.513,0.651,0.4,1.594-0.251,2.106c-0.649,0.512-1.595,0.4-2.106-0.251c-18.194-23.109-68.135-83.315-80.557-84.37
				c-0.749-0.063-0.996,0.165-1.079,0.24c-2.892,2.611-5.978,9.796-4.254,29.197c3.738,42.063,26.546,106.892,35.121,112.235
				c0.703,0.438,0.918,1.363,0.48,2.066C3018.719,657.719,3018.229,657.969,3017.729,657.969z"/>
		</g>
	</g>
	<g>
		<path style="fill:#D54A41;" d="M2571.397,592.094c-12.481-9.87-10.536-32.647,0-35.114c10.535-2.467,11.769-11.674,13.003-24.982
			c1.233-13.308,16.148-30.881,41.383-26.721c25.235,4.161,31.404-3.858,35.105-8.176s20.355,0.315,31.459,8.176
			c11.103,7.862,16.037-2.008,28.991-3.858c12.953-1.851,46.263,0,53.048,20.356c6.785,20.355,17.003,25.907,26.082,26.524
			c9.078,0.617,22.031,35.16,8.461,36.393c-13.57,1.234-3.701,19.739-5.551,25.29c-1.852,5.551-16.039,1.995-14.805,14.949
			c1.233,12.954,1.233,15.095-16.038,21.354c-17.271,6.259-27.802,14.895-30.556,19.83c-2.754,4.935-137.842,19.122-145.243,2.467
			c-7.402-16.654-12.337-19.738-20.356-24.673c-8.019-4.935-13.631-16.039-5.63-27.369
			C2576.444,608.478,2576.754,596.329,2571.397,592.094z"/>
		<path style="fill:#B83B34;" d="M2763.9,582.841c12.337-12.954,20.973-1.184,12.337,3.109c-8.636,4.293-9.869,6.098-10.486,15.682
			c-0.617,9.584-14.804,5.883-19.739,8.967c-4.934,3.085,9.898,22.06,0.617,25.291c-9.281,3.23-83.894,30.621-111.031,21.589
			c-27.137-9.032-28.991-20.356-25.29-27.141c3.701-6.785-7.402-3.701-8.636-9.869c-1.234-6.169-1.851-12.382,3.701-18.837
			c5.551-6.454-7.402-15.706-3.701-23.109c3.701-7.402,32.075-14.804,32.075-14.804l101.778,6.786L2763.9,582.841z"/>
		<path style="fill:#F09959;" d="M2944.002,536.68c5.259-0.719,23.609-23.851,29.007-22.462c5.397,1.388,30.843-7.522,38.244-0.06
			c7.402,7.462-1.851,26.43-16.192,28.743c-14.341,2.314-19.893,0-19.893,0s-0.926,12.954-16.191,20.818
			C2943.709,571.583,2944.002,536.68,2944.002,536.68z"/>
		<path style="fill:#F09959;" d="M2446.846,576.21c0,0-8.328-30.996-13.417-32.847c-5.089-1.851-38.86-5.089-38.86,0
			c0,5.089-3.238,15.267,8.327,20.356c11.565,5.089,17.603,5.089,17.603,5.089s-0.948,17.58,8.768,21.743
			C2438.98,594.715,2446.846,576.21,2446.846,576.21z"/>
		<path style="fill:#C1C765;" d="M2670.381,641.196c0,0-89.237,11.131-122.07,1.871c-32.832-9.261-101.201-72.563-101.201-72.563
			s-25.773,16.157-23.742,19.525c2.031,3.367,68.538,86.387,98.846,104.052c27.992,16.315,133.601,35.698,133.601,35.698
			L2670.381,641.196z"/>
		<path style="fill:#A1A654;" d="M2655.813,729.779l4.545-20.187l10.022-65.684c0,0-47.591,53.624-80.551,71.864
			C2623.465,723.841,2655.813,729.779,2655.813,729.779z"/>
		<path style="fill:#C1C765;" d="M2703.15,628.487c64.76,27.758,129.495,9.695,159.93-17.137
			c31.459-27.735,85.872-79.352,85.872-79.352l24.057,24.982c0,0-63.534,75.208-82.039,101.116
			c-18.505,25.907-79.136,50.889-106.405,69.394c-27.27,18.505-9.719,126.906-9.719,126.906l-109.64,2.596
			c0,0-27.956-68.772-39.423-113.016c-11.466-44.244,47.75-106.236,47.75-106.236L2703.15,628.487z"/>
		<path style="fill:#A1A654;" d="M2724.423,661.796c0,0-27.74,49.039-21.272,74.021c6.469,24.982,38.377,132.194,38.377,132.194
			h40.262L2772,752.638c0,0-8.027,15.713-26.296-4.792C2721.647,720.843,2724.423,661.796,2724.423,661.796z"/>
		<path style="fill:#F09959;" d="M2690.282,552.369l17.69,81.881c0,0-15.979,52.594-37.592,52.594
			c-21.612,0,1.297-39.76,1.297-39.76l-14.154-68.561L2690.282,552.369z"/>
		<path style="fill:#E38540;" d="M2701.137,602.58l-9.148-42.345l-34.465,18.289l13.989,67.762
			C2684.242,637.216,2694.418,625.677,2701.137,602.58z"/>
		<path style="fill:#F09959;" d="M2686.703,591.011c-9.65,22.55-30.538,35.239-46.654,28.342
			c-16.115-6.897-21.356-30.768-11.705-53.318c9.65-22.55,30.538-35.239,46.653-28.342
			C2691.113,544.589,2696.354,568.461,2686.703,591.011z"/>
		<path style="fill:#D54A41;" d="M2601.672,540.896c6.785,25.291,6.168,37.627,41.328,16.083c9.685-5.934,14.188-0.046,17.889,4.272
			c3.701,4.318,8.635-7.927,15.42-4.272c6.786,3.655-4.392,37.876,13.974,36.33c16.447-1.385,15.017,10.268,39.467-2.068
			c19.239-9.708-31.833-59.598-55.282-65.149C2651.019,520.54,2601.672,540.896,2601.672,540.896z"/>
		<path style="fill:#D54A41;" d="M2774.387,570.504c-14.804,21.589-21.967,19.762-28.284,18.505
			c-6.317-1.257-19.617,3.66-26.421,4.293c-6.804,0.633,7.209-40.069,7.209-40.069L2774.387,570.504z"/>
	</g>
</g>
<g>
	<path style="fill:#2E5B9A;" d="M2958.848,1517.847h-945.676c-25.073,0-43.116-24.086-36.067-48.147l170.475-581.911
		c6.77-23.107,27.963-38.982,52.04-38.982h933.208c25.073,0,43.115,24.086,36.066,48.148l-173.98,593.877
		C2990.223,1506.845,2975.535,1517.847,2958.848,1517.847z"/>
	<path style="fill:#EBEFF2;" d="M2915.135,1430.149h-835.532c-22.153,0-38.095-21.281-31.866-42.54l137.393-465.399
		c5.981-20.415,24.707-34.442,45.979-34.442h824.516c22.153,0,38.094,21.281,31.866,42.54L2947,1406.279
		C2942.855,1420.428,2929.877,1430.149,2915.135,1430.149z"/>
	<path style="fill:#6087BD;" d="M2976.433,1524.82H1621.567c-15.712,0-28.567-12.855-28.567-28.567v-17.394
		c0-15.712,12.855-28.567,28.567-28.567h1354.865c15.712,0,28.567,12.855,28.567,28.567v17.394
		C3005,1511.965,2992.145,1524.82,2976.433,1524.82z"/>
	<path style="fill:#4170B3;" d="M2982.168,1524.82h-504.292c-12.558,0-22.832-10.274-22.832-22.832v-28.864
		c0-12.558,10.274-22.832,22.832-22.832h504.292c12.558,0,22.832,10.274,22.832,22.832v28.864
		C3005,1514.546,2994.726,1524.82,2982.168,1524.82z"/>
	<g>
		<path style="fill:#C1C765;" d="M2344.866,1076.892c0,0-2.37,35.422,27.172,34.157c16.045-0.688,38.612-34.157,38.612-34.157
			s45.77,10.12,65.131,55.663s19.361,45.543,19.361,45.543s-17.449,17.325-36.41,28.046c-17.557,9.927-35.241,13.702-35.241,13.702
			l-11.172-32.893l-29.433,126.509c0,0-34.846,12.716-94.715,12.65c-51.432-0.056-68.407-16.445-68.407-16.445l56.818-125.243
			l-35.782,40.482c0,0-26.369-14.326-44.957-30.362c2.677-7.591,33.104-39.427,56.164-64.91
			C2282.944,1095.446,2344.866,1076.892,2344.866,1076.892z"/>
		<g>
			<polygon style="fill:#F5CE5C;" points="2283.902,1162.689 2420.538,1162.689 2424.232,1151.78 2287.575,1151.78 			"/>
			<polygon style="fill:#F5CE5C;" points="2260.947,1218.889 2404.89,1218.889 2407.354,1207.979 2265.896,1207.979 			"/>
			<polygon style="fill:#F5CE5C;" points="2417.367,1172.051 2280.75,1172.051 2276.583,1184.424 2270.144,1198.618 
				2409.605,1198.618 2412.319,1186.953 			"/>
		</g>
	</g>
	<g>
		<path style="fill:#F39892;" d="M2778.863,1072.087c0,0-37.764,12.314-63.492,25.249
			c-25.727,12.936-129.864,128.173-129.864,128.173s16.679,29.397,26.085,29.397c9.408,0,91.47-72.646,91.47-72.646
			s3.353,33.842-26.126,90.52c-17.408,33.472-29.077,52.68-29.077,52.68s26.147,5.88,72.769,7.056s95.867-11.759,95.867-11.759
			s-0.637-48.212,13.32-86.08c6.947-18.849,19.285-59.73,19.285-59.73s41.035,81.393,44.148,82.568s46.135-28.478,46.135-28.478
			s-24.299-107.783-37.294-138.46c-5.68-13.408-52.352-20.162-52.352-20.162s-19.488,44.355-48.52,46.912
			C2774.519,1119.679,2778.863,1072.087,2778.863,1072.087z"/>
		<path style="fill:#F37168;" d="M2647.858,1325.459c0,0,17.529,3.938,49.455,6.013l82.887-235.036
			c-2.476-11.864-1.337-24.349-1.337-24.349s-37.764,12.314-63.492,25.249c-25.727,12.936-129.864,128.173-129.864,128.173
			s16.679,29.397,26.086,29.397s91.469-72.646,91.469-72.646s3.353,33.842-26.126,90.52
			C2659.527,1306.251,2647.858,1325.459,2647.858,1325.459z"/>
		<path style="fill:#F37168;" d="M2703.372,1331.832c2.152,0.117,4.367,0.223,6.635,0.319l77.489-219.732
			c-1.788-1.874-3.227-4.171-4.38-6.713L2703.372,1331.832z"/>
	</g>
	<g>
		<path style="fill:#D54A41;" d="M2445.73,1014.391h-113.248c-10.479,0-16.029-8.574-12.334-19.053l11.178-31.695
			c3.695-10.479,15.293-19.053,25.771-19.053h113.248c10.479,0,16.028,8.574,12.334,19.053l-11.178,31.695
			C2467.807,1005.816,2456.209,1014.391,2445.73,1014.391z"/>
		<g>
			<g>
				<path style="fill:#FFFFFF;" d="M2416.468,983.964h-37.012c-0.729,0-1.421-0.317-1.896-0.87
					c-0.475-0.552-0.686-1.284-0.576-2.005l2.871-18.946c0.207-1.363,1.477-2.308,2.847-2.097c1.364,0.207,2.304,1.481,2.097,2.847
					l-2.436,16.071h34.104c1.381,0,2.5,1.119,2.5,2.5C2418.968,982.845,2417.849,983.964,2416.468,983.964z"/>
			</g>
			<g>
				<path style="fill:#FFFFFF;" d="M2425.262,965.018h-42.935c-1.381,0-2.5-1.119-2.5-2.5c0-1.381,1.119-2.5,2.5-2.5h42.935
					c1.381,0,2.5,1.119,2.5,2.5C2427.762,963.898,2426.643,965.018,2425.262,965.018z"/>
			</g>
			<g>
				<path style="fill:#FFFFFF;" d="M2421.063,974.407h-38.357c-2.209,0-4-1.791-4-4c0-2.209,1.791-4,4-4h38.357c2.209,0,4,1.791,4,4
					C2425.063,972.616,2423.272,974.407,2421.063,974.407z"/>
			</g>
			<g>
				<path style="fill:#FFFFFF;" d="M2409.538,996.613h-32.027c-1.381,0-2.5-1.119-2.5-2.5c0-1.381,1.119-2.5,2.5-2.5h30.605
					l23.155-38.926c0.45-0.758,1.267-1.222,2.148-1.222h14.647c1.381,0,2.5,1.119,2.5,2.5c0,1.381-1.119,2.5-2.5,2.5h-13.226
					l-23.155,38.926C2411.236,996.149,2410.42,996.613,2409.538,996.613z"/>
			</g>
			<path style="fill:#FFFFFF;" d="M2384.284,1001.992c-0.974,2.759-3.998,4.995-6.757,4.995c-2.76,0-4.207-2.236-3.234-4.995
				c0.973-2.759,3.998-4.996,6.758-4.996C2383.81,996.996,2385.257,999.233,2384.284,1001.992z"/>
			<path style="fill:#FFFFFF;" d="M2407.199,1001.992c-0.973,2.759-3.998,4.995-6.758,4.995c-2.759,0-4.206-2.236-3.233-4.995
				c0.973-2.759,3.998-4.996,6.757-4.996C2406.725,996.996,2408.172,999.233,2407.199,1001.992z"/>
		</g>
	</g>
	<g>
		<path style="fill:#D54A41;" d="M2878.213,1014.391h-113.248c-10.479,0-16.029-8.574-12.333-19.053l11.177-31.695
			c3.695-10.479,15.293-19.053,25.771-19.053h113.248c10.479,0,16.029,8.574,12.334,19.053l-11.178,31.695
			C2900.289,1005.816,2888.691,1014.391,2878.213,1014.391z"/>
		<g>
			<g>
				<path style="fill:#FFFFFF;" d="M2848.95,983.964h-37.011c-0.729,0-1.421-0.317-1.896-0.87c-0.475-0.552-0.686-1.284-0.576-2.004
					l2.87-18.946c0.206-1.364,1.479-2.309,2.846-2.098c1.365,0.207,2.305,1.481,2.098,2.846l-2.435,16.072h34.104
					c1.381,0,2.5,1.119,2.5,2.5C2851.45,982.845,2850.331,983.964,2848.95,983.964z"/>
			</g>
			<g>
				<path style="fill:#FFFFFF;" d="M2857.744,965.018h-42.935c-1.381,0-2.5-1.119-2.5-2.5c0-1.381,1.119-2.5,2.5-2.5h42.935
					c1.381,0,2.5,1.119,2.5,2.5C2860.244,963.898,2859.125,965.018,2857.744,965.018z"/>
			</g>
			<g>
				<path style="fill:#FFFFFF;" d="M2853.547,974.407h-38.358c-2.209,0-4-1.791-4-4c0-2.209,1.791-4,4-4h38.358c2.209,0,4,1.791,4,4
					C2857.547,972.616,2855.756,974.407,2853.547,974.407z"/>
			</g>
			<g>
				<path style="fill:#FFFFFF;" d="M2842.021,996.613h-32.028c-1.381,0-2.5-1.119-2.5-2.5c0-1.381,1.119-2.5,2.5-2.5h30.606
					l23.155-38.926c0.45-0.758,1.267-1.222,2.148-1.222h14.646c1.381,0,2.5,1.119,2.5,2.5c0,1.381-1.119,2.5-2.5,2.5h-13.225
					l-23.155,38.926C2843.72,996.149,2842.903,996.613,2842.021,996.613z"/>
			</g>
			<path style="fill:#FFFFFF;" d="M2816.767,1001.992c-0.973,2.759-3.998,4.995-6.757,4.995c-2.76,0-4.207-2.236-3.234-4.995
				c0.973-2.759,3.998-4.996,6.758-4.996C2816.292,996.996,2817.74,999.233,2816.767,1001.992z"/>
			<path style="fill:#FFFFFF;" d="M2839.682,1001.992c-0.973,2.759-3.998,4.995-6.757,4.995s-4.207-2.236-3.234-4.995
				c0.974-2.759,3.999-4.996,6.758-4.996S2840.655,999.233,2839.682,1001.992z"/>
		</g>
	</g>
	<g>
		<polygon style="fill:#4D4D4D;" points="2975.986,1308.076 3044.09,1077.343 2617.655,1430.149 2828.438,1430.149 		"/>
		<path style="fill:#4D4D4D;" d="M3055.624,887.768h-217.177l-674.503,542.381h336.57l578.297-472.772l9.637-31.394
			C3091.515,906.256,3076.272,887.768,3055.624,887.768z"/>
	</g>
</g>
<g>
	<path style="fill:#F3B570;" d="M2052.205,779.583c-1.172,26.732,13.354,49.892,32.486,49.92c31.69,0.047,50.37,0,44.532-48.415
		c-3.202-26.565-21.175-47.553-40.288-48.391C2069.821,731.859,2053.377,752.851,2052.205,779.583z"/>
	<path style="fill:#F3B570;" d="M2052.139,767.091l-12.225,78.22c0,0,25.1,26.268,35.607,25.1
		c10.507-1.167,12.188-2.335,11.674-5.837c-0.515-3.502,10.508-72.382,10.508-72.382L2052.139,767.091z"/>
	<path style="fill:#E38540;" d="M2066.182,798.612c0,0,3.891,12.647,12.647,20.157c5.84,5.009,18.462,4.95,42.161,4.707
		c-6.664,5.09-16.645,5.901-29.102,6.013c-2.059,13.57-4.003,26.941-4.555,32.512c-4.326-7.684-8.883-16.21-11.229-21.945
		C2070.852,827.215,2066.182,798.612,2066.182,798.612z"/>
	<path style="fill:#2E2D3D;" d="M2173.835,1536.123c8.979,13.227,62.015,25.311,58.657,30.681
		c-3.356,5.37-38.955,12.084-57.072,6.042c-18.116-6.042-34.646-1.063-43.164-5.371c-8.519-4.307,5.579-37.594,5.579-37.594
		L2173.835,1536.123z"/>
	<path style="fill:#2E2D3D;" d="M1956.577,1538.607c4.699,11.413,69.088,27.524,24.81,29.539
		c-44.278,2.014-45.628-4.979-62.744-4.979c-17.115,0-1.003-32.616,3.696-37.986
		C1927.038,1519.811,1956.577,1538.607,1956.577,1538.607z"/>
	<path style="fill:#3A384D;" d="M1981.386,1080.139c-16.082,179.197-1.136,203.002-20.693,277.7
		c-19.557,74.699-47.753,170.429-41.04,178.284s32.312,3.795,36.923,2.484c4.611-1.31,88.14-124.866,112.112-212.139
		c30.016-109.278,22.825-225.961,22.825-225.961L1981.386,1080.139z"/>
	<path style="fill:#2E2D3D;" d="M2012.49,1452.366c-7.933-40.077,7.731-112.311-38.851-250.887
		c0.863-25.397,2.415-56.232,5.536-95.287c1.199-7.369,2.407-15.844,3.587-25.799l108.75,20.114c0,0,7.19,116.683-22.825,225.961
		C2057.857,1365.902,2034.866,1412.741,2012.49,1452.366z"/>
	<path style="fill:#3A384D;" d="M2132.256,1100.508c-13.889,80.954,0.88,281.01,18.334,349.484
		c17.455,68.476,24.83,91.301,24.83,91.301s-22.646,11.805-43.164-5.17c-20.518-16.976-95.484-145.273-87.539-178.284
		s-29.734-75.679-41.818-142.811c-12.084-67.133-14.77-120.84-14.77-120.84L2132.256,1100.508z"/>
	<path style="fill:#7DC1D6;" d="M2025.688,845.69c-45.614,39.716-93.278,154.513-97.307,174.652
		c-4.028,20.14,39.59,48.442,59.748,57.315C2008.287,1086.531,2025.688,845.69,2025.688,845.69z"/>
	<path style="fill:#9BD6E8;" d="M2041,833.24c0,0-49.981,25.978-51.28,113.919c-1.836,124.244-13.717,168.513-13.717,168.513
		s119.776,22.775,152.169,22.918c21.076,0.093,31.891-69.929,31.891-149.128c0-79.2-61.836-127.552-73.92-131.58
		C2074.06,853.854,2041,833.24,2041,833.24z"/>
	<path style="opacity:0.5;fill:#7DC1D6;" d="M2092.269,1034.835c-32.813-35.856-45.733-122.576-30.294-159.499l94.631,82.146
		c2.194,10.007,3.457,20.678,3.457,31.98c0,32.563-1.219,63.235-4.898,88.197C2141.9,1072.836,2116.013,1060.783,2092.269,1034.835z
		"/>
	<path style="fill:#F3B570;" d="M2316.652,964.641c14.993-7.143,32.838-34.05,32.596-25.091c-0.243,8.958-1.891,14.069-1.891,14.069
		s36.817-21.093,42.008-13.941c5.189,7.151-7.4,29.56-17.396,34.322c-9.995,4.762-58.562,11.846-58.562,11.846L2316.652,964.641z"/>
	<path style="fill:#9BD6E8;" d="M2057.276,872.651c-19.95,55.497,53.107,140.307,102.786,158.433
		c49.678,18.126,169.319-40.682,169.319-40.682s-4.527-28.486-12.583-27.798c-8.057,0.688-124.586,9.403-124.586,9.403
		s-57.063-75.234-83.916-93.942C2079.927,858.3,2058.782,868.461,2057.276,872.651z"/>
	<path style="fill:#2E2D3D;" d="M2130.287,722.144c17.712,35.89-13.196,49.617-19.033,49.617c-5.838,0,3.651,32.44-4.212,32.397
		c-7.862-0.043-3.031-27.017-12.178-24.529c-9.146,2.488-11.817,39.184-23.169,46.012c-11.352,6.828-24.284,3.22-28.033-4.315
		c-3.748-7.536-5.08-26.553-11.921-40.235c-11.675-23.349,1.751-71.204,28.02-74.707c26.268-3.502,32.104,5.254,48.449,3.503
		C2124.555,708.134,2127.957,717.424,2130.287,722.144z"/>
	<path style="fill:#F3B570;" d="M2082.433,790.705c2.473,6.819,8.408,10.922,13.258,9.163c4.849-1.758,6.775-8.712,4.303-15.531
		c-2.473-6.819-8.408-10.922-13.258-9.164C2081.887,776.933,2079.96,783.886,2082.433,790.705z"/>
</g>
<g>
	<path style="fill:#58556E;" d="M3236.936,1534.735c0,0-12.03,16.897-28.245,23.697s-45.505,16.296-34.521,20.099
		c10.984,3.803,40.718,1.951,54.619,0s18.608,6.896,25.932,2.211c7.322-4.686,5.753-35.022,5.753-35.022L3236.936,1534.735z"/>
	<path style="fill:#58556E;" d="M3448.641,1551.708c0,0,4.708,15.98-8.368,30.103c-13.077,14.123-34.522,21.445-14.646,24.584
		c19.876,3.138,44.46-7.846,49.167-14.646c4.708-6.8,6.8-8.106,10.462-12.422c3.661-4.316,0-35.177,0-35.177L3448.641,1551.708z"/>
	<path style="fill:#58556E;" d="M3302.912,755.284c-33.532,21.001-35.591,74.101-12.234,93.204
		c23.357,19.104,82.993,23.96,110.9,14.123c28.23-9.952,54.954-17.553,70.077-4.58c22.412,19.226,37.137,26.627,55.444,22.364
		c32.631-7.599,40.798-2.092,46.551,17.261c5.754,19.353,15.169,2.936,30.861,18.467c15.691,15.531,2.092,33.201-3.139,37.181
		c-5.23,3.98,33.998,17.056,35.045-28.449c1.046-45.506-41.845-17.784-46.553-30.337c-4.707-12.553,6.8-47.598-12.553-48.644
		c-19.354-1.046-35.045,5.801-37.66-10.961c-2.615-16.761-36.104-25.653-51.26-14.669c-15.156,10.984-25.09-10.237-31.539-23.015
		c-7.391-14.646-28.089-7.846-44.826-14.122c-16.738-6.276-8.697-31.27-46.748-43.958
		C3346.457,732.871,3323.631,742.308,3302.912,755.284z"/>
	<path style="fill:#F09959;" d="M3353.743,803.012c0,0,17.134,46.505,44.058,62.822c26.924,16.317,54.663,16.147,51.399,41.116
		c-3.264,24.969-3.206,162.171-3.206,162.171s-56.775,28.573-71.461,28.115s-79.533-123.16-74.638-143.384
		c4.896-20.224,49.234-76.597,46.646-90.467c-2.588-13.87-18.906-37.269-18.906-37.269L3353.743,803.012z"/>
	<path style="fill:#E38540;" d="M3346.435,866.812c0.234-1.322,0.284-2.476,0.106-3.425c-2.588-13.87-18.906-37.269-18.906-37.269
		l26.108-23.105c0,0,4.138,11.225,11.536,24.579C3359.901,843.5,3353.056,856.559,3346.435,866.812z"/>
	<path style="fill:#F09959;" d="M3289.219,821.024c3.87,20.713,13.943,39.865,31.143,36.651
		c17.201-3.214,35.015-27.577,31.145-48.29c-3.871-20.713-20.951-34.9-38.152-31.686
		C3296.154,780.914,3285.348,800.31,3289.219,821.024z"/>
	<path style="fill:#F37168;" d="M3376.682,1066.041c0,0-7.175,138.292-77.049,330.775c-29.173,80.363-70.856,147.334-70.856,147.334
		s35.843,32.309,39.515,24.966c3.671-7.343,143.379-151.548,183.924-330.262c24.381-107.469-40.175-196.32-40.175-196.32
		L3376.682,1066.041z"/>
	<path style="opacity:0.5;fill:#D54A41;" d="M3376.468,1066.563c0,0-1.56,29.986-10.272,81.448
		c38.152,99.788,8.512,233.287-22.339,324.188c41.048-59.607,87.478-141.724,108.146-232.822
		c24.381-107.469-40.176-196.32-40.176-196.32L3376.468,1066.563z"/>
	<path style="fill:#F37168;" d="M3436.881,1053.395c0,0,89.333-0.772,90.558,94.382c1.224,95.153-11.015,241.078-24.476,325.517
		s-13.785,95.823-13.785,95.823s-35.146-1.224-44.057-4.896c0-24.514-4.347-136.032-14.859-207.184
		c-10.514-71.152-37.436-274.725-37.436-274.725L3436.881,1053.395z"/>
	<path style="fill:#DBB64C;" d="M3337.811,885.777c-84.905,17.25-132.572,39.976-144.869,50.53
		c-17.467,14.991-9.134,50.742-2.855,52.088c26.591,5.7,150.88-10.08,150.88-10.08L3337.811,885.777z"/>
	<path style="fill:#F5CE5C;" d="M3397.801,865.834c21.992,10.693,50.584,15.317,56.295,25.2c5.711,9.883-13.055,133.079,0,148.581
		c13.054,15.502,29.811,22.028,29.811,22.028s-26.91,63.638-76.089,69.35c-49.179,5.711-50.993-13.114-50.993-13.114
		s-61.008-118.926-56.929-164.025c1.684-18.612,38.328-68.077,38.328-68.077s-5.579,19.637,8.233,23.1
		C3360.271,912.339,3397.801,865.834,3397.801,865.834z"/>
	<path style="fill:#DBB64C;" d="M3454.95,910.761c-1.715,37.92-11.118,116.667-0.854,128.854
		c13.054,15.502,29.811,22.028,29.811,22.028s-5.163,12.208-15.098,26.41c-4.804-1.68-11.938-2.127-19.346-6.763
		c-32.7-20.463-46.363-47.724-57.66-75.127c-11.296-27.403,11.709-63.638,38.459-118.285L3454.95,910.761z"/>
	<path style="fill:#3E6BAB;" d="M3327.635,870.833c0,0,22.029,18.528,53.978,13.379c15.597-2.514,17.004,0,17.004,0
		s35.607,74.31,50.847,117.712c15.239,43.401,20.95,40.138,15.239,43.401c-5.712,3.264-54.282,19.634-54.282,19.634l-25.654-111.657
		c0,0-15.259,8.681-15.266,55.309c-0.006,39.231,57.042,99.489,70.772,103.844c5.136,1.629,11.158,23.363-56.839,42.193
		c-60.239,16.682-130.858-16.663-130.858-16.663s31.819-167.311,41.609-186.688c9.79-19.378-44.058,96.63-44.058,96.63
		s-26.753,2.041-3.263-48.975c23.49-51.016,38.792-96.812,46.716-111.074C3303.392,870.221,3298.963,862.182,3327.635,870.833z"/>
	<path style="fill:#F09959;" d="M3440.726,883.006c-22.384,9.752-12.767,70.848-12.767,70.848s106.237,66.611,105.421,75.107
		c-0.815,8.495-27.26,48.367-70.442,70.594c-2.979-6.771-27.723-4.028-43.095-2.313l4.154,4.499
		c2.643,0.907,12.386,4.81,12.386,4.81s-23.236,1.158-28.565,5.19c-11.718,8.865,33.501,17.802,59.057,4.202
		c19.083-10.155,64.061-21.446,98.325-73.409C3604.553,982.852,3440.726,883.006,3440.726,883.006z"/>
	<path style="fill:#F5CE5C;" d="M3424.83,876.261c54.558,12.418,131.56,90.786,142.93,118.599
		c8.029,19.64,3.006,29.119-18.207,41.832c-21.213,12.713-33.451,5.842-33.451,5.842s-22.935-36.729-49.043-54.568
		c-26.107-17.838-42.334-21.449-42.334-21.449s-10.606-28.646-7.344-55.282C3420.645,884.6,3424.83,876.261,3424.83,876.261z"/>
	<path style="fill:#3E6BAB;" d="M3406.504,977.627c-4.883-6.695-5.215-14.111-4.794-25.569c0.59-16.064,1.259-25.466,7.808-44.581
		c11.369,24.636,28.903,63.741,38.949,91.652C3421.452,996.466,3406.504,977.627,3406.504,977.627z"/>
	<path style="fill:#F5CE5C;" d="M3182.586,967.004c4.107,24.679,7.396,26.657,19.609,27.942
		c19.377,2.039,45.893-22.436,53.848-36.714c7.954-14.278,6.91-20.526,6.91-20.526L3182.586,967.004z"/>
	<path style="fill:#E38540;" d="M3266.213,930.288c-14.454,39.162-62.574,55.989-72.381,51.4
		c-9.806-4.588-13.261-23.779-12.037-24.556C3183.02,956.356,3266.213,930.288,3266.213,930.288z"/>
	<path style="fill:#F5CE5C;" d="M3256.246,911.931c-7.547-3.671-12.515-0.457-12.515-0.457l-27.542,10.598L3256.246,911.931z"/>
	<path style="fill:#F09959;" d="M3193.832,932.467c-19.233,14.737-14.688,40.047,0,39.839
		c14.689-0.208,108.512-51.182,116.67-60.782c8.158-9.601,54.664-5.787,58.742-14.196c4.08-8.409-40.741-15.49-49.359-11.55
		c-8.619,3.939-20.185,14.31-20.185,14.31S3212.598,918.088,3193.832,932.467z"/>
	<path style="fill:#58556E;" d="M3285.447,792.867c9.416,33.475,64.381,14.675,64.381,14.675s6.07,19.846,24.72,35.015
		c18.649,15.169,27.03-8.369,27.03-8.369l-51.795-61.198c0,0-43.937,1.569-46.552,2.615
		C3300.616,776.652,3285.447,792.867,3285.447,792.867z"/>
	<path style="fill:#F09959;" d="M3347.196,811.457c-2.384,7.729-0.289,15.237,4.68,16.77c4.97,1.533,10.93-3.491,13.313-11.22
		c2.385-7.729,0.289-15.237-4.68-16.769C3355.541,798.705,3349.58,803.728,3347.196,811.457z"/>
</g>
<g>
	<path style="fill:#303C60;" d="M722.475,770.453c10.627,54.905-12.786,76.174-55.985,84.089
		c-43.199,7.914-70.404-36.604-110.47-23.248c-40.066,13.355,95.976-76.175,95.976-76.175L722.475,770.453z"/>
	<path style="fill:#D54A41;" d="M796.416,1509.446c25.721,18.302,45.507,25.721,59.357,27.699
		c13.85,1.979,2.473,11.377-23.248,14.345s-24.237-4.946-39.571-4.451c-15.334,0.494-26.19,5.076-23.743-10.388
		c2.447-15.465,2.473-27.205,2.473-27.205H796.416z"/>
	<path style="fill:#D54A41;" d="M444.232,1500.056c-6.925,16.323-0.989,36.108,10.882,41.55c11.872,5.441,1.978,9.893-22.259,8.409
		c-24.237-1.484-28.194-13.851-27.205-28.689c0.989-14.839-8.904-12.366-7.915-21.27c0.989-8.903,31.165-23.742,31.164-23.742
		C428.898,1476.313,444.232,1500.056,444.232,1500.056z"/>
	<path style="fill:#D54A41;" d="M666.49,856.685c71.229,27.7,195.826,18.747,195.826,18.747l-58.426,41.929
		c0,0-36.173,20.105-83.672,14.493C672.719,926.242,666.49,856.685,666.49,856.685z"/>
	<path style="fill:#3E6BAB;" d="M655.875,1054.45c0,0,111.965,201.401,119.384,236.893c7.419,35.492,31.614,222.524,31.614,222.524
		s-27.77,9.8-38.157,6.832c-10.387-2.968-64.682-173.091-66.165-201.284c-1.483-28.192-79.32-97.929-120.868-145.093
		c-41.548-47.163,0-144.466,0-144.466L655.875,1054.45z"/>
	<path style="fill:#2E5B9A;" d="M687.8,1114.071c-13.331-25.152-24.154-45.249-29.068-54.343l-79.474-23.69
		c-8.248,22.121-32.839,98.256,2.424,138.284c23.2,26.336,59.701,59.015,88.185,93.753
		C666.09,1229.128,670.841,1184.735,687.8,1114.071z"/>
	<path style="fill:#3E6BAB;" d="M662.101,1080.552c-34.129,143.863-84.191,223.722-113.868,274.437
		c-29.677,50.715-98.065,142.885-102.517,145.554c-4.452,2.669-30.668-8.409-29.184-21.764
		c1.484-13.354,41.881-151.346,68.59-172.96c26.709-21.613,29.733-45.622,42.373-118.818c12.64-73.195,46.768-144.42,60.123-144.42
		S662.101,1080.552,662.101,1080.552z"/>
	<path style="fill:#F09959;" d="M651.997,801.12c0,0-17.586,47.657-26.489,51.313c-8.903,3.657-42.83,19.987-48.766,94.015
		c-5.935,74.028-5.659,116.184-5.659,116.184s70.244,35.34,91.018,17.919s64.51-114.574,60.059-140.743
		c-4.452-26.169-36.165-75.755-46.943-84.433c-10.778-8.677,6.879-50.782,6.879-50.782l-29.677-26.265L651.997,801.12z"/>
	<path style="fill:#F37168;" d="M625.507,852.434c24.495,25.356,52.912,41.491,56.588,28.324
		c3.675-13.167-13.009-31.869-6.879-25.381c0.974,1.03,2.917,2.644,5.246,5.422c12.336,14.713,40.047,51.132,46.705,74.404
		c7.914,27.665-33.636,107.378-45.071,127.43c-7.749,13.588,8.108,55.979,8.108,55.979s-31.298,10.61-64.696-8.341
		c-27.793-15.771-38.598-14.657-54.427-14.657c-15.829,0-22.974,0-22.974,0s13.601-39.899,19.456-65.757
		c7.864-34.729,6.595-126.346,19.541-148.227C602.123,856.243,625.507,852.434,625.507,852.434z"/>
	<path style="fill:#E38540;" d="M680.462,860.798c-2.038-2.418-3.825-4.278-5.246-5.422c-10.778-8.677,6.879-50.782,6.879-50.782
		l-29.677-26.265l-9.254,21.801c0,0-1.176,6.532-3.103,14.987C652.61,859.042,667.958,865.676,680.462,860.798z"/>
	<path style="opacity:0.5;fill:#D54A41;" d="M724.722,965.302c-24.79,17.139-51.718,4.054-77.944-26.671
		c-27.443-32.152-43.746-57.491-57.593-38.589c-13.847,18.903-15.774,89.463,11.145,135.997
		c20.521,35.472,57.36,69.374,79.719,84.734c6.355-0.877,10.156-2.161,10.156-2.161s-15.857-42.391-8.109-55.979
		C690.563,1047.783,715.542,1000.221,724.722,965.302z"/>
	<g>
		<path style="fill:#9BD6E8;" d="M1028.87,875.659l-186.006,265.074c-3.348,4.771-9.929,5.924-14.699,2.576l-146.843-103.042
			c-4.771-3.347-5.924-9.928-2.577-14.698L864.75,760.495c3.348-4.771,9.929-5.924,14.699-2.577l146.843,103.042
			C1031.063,864.308,1032.217,870.889,1028.87,875.659z"/>
		<path style="fill:#63ACC2;" d="M788.875,1019.9l-29.878,41.761c-2.767,3.866-8.193,4.767-12.059,2l-12.76-9.129
			c-3.866-2.767-4.767-8.192-2-12.06l29.878-41.76c2.766-3.866,8.193-4.767,12.059-2l12.759,9.129
			C790.741,1010.607,791.641,1016.034,788.875,1019.9z"/>
		<path style="opacity:0.5;fill:#3E6BAB;" d="M866.993,1024.304l-58.442,78.503c-2.229,2.994-6.501,3.619-9.494,1.391
			c-2.993-2.228-3.619-6.5-1.391-9.493l58.442-78.504c2.229-2.993,6.5-3.619,9.494-1.391
			C868.596,1017.038,869.222,1021.31,866.993,1024.304z"/>
		<path style="opacity:0.5;fill:#3E6BAB;" d="M900.917,1012.498l-76.194,102.349c-2.229,2.993-6.5,3.619-9.494,1.391
			c-2.993-2.229-3.619-6.501-1.391-9.494l76.194-102.349c2.228-2.993,6.5-3.619,9.494-1.391
			C902.519,1005.232,903.145,1009.505,900.917,1012.498z"/>
		<path style="fill:#63ACC2;" d="M832.239,959.29l-29.878,41.76c-2.766,3.866-8.193,4.767-12.059,2.001l-12.76-9.129
			c-3.866-2.766-4.766-8.193-2-12.059l29.878-41.761c2.767-3.866,8.193-4.767,12.06-2l12.759,9.129
			C834.105,949.997,835.005,955.423,832.239,959.29z"/>
		<path style="fill:#63ACC2;" d="M877.076,896.62l-29.878,41.761c-2.767,3.867-8.193,4.767-12.06,2l-12.759-9.129
			c-3.866-2.766-4.767-8.193-2-12.059l29.878-41.761c2.766-3.866,8.193-4.767,12.059-2l12.759,9.129
			C878.942,887.327,879.842,892.754,877.076,896.62z"/>
		<path style="fill:#63ACC2;" d="M920.44,836.01l-29.878,41.761c-2.766,3.866-8.193,4.767-12.059,2l-12.76-9.129
			c-3.866-2.766-4.766-8.192-2-12.059l29.878-41.761c2.766-3.866,8.193-4.767,12.059-2l12.76,9.129
			C922.307,826.717,923.206,832.144,920.44,836.01z"/>
	</g>
	<path style="fill:#F09959;" d="M803.79,1134.832c0,0,48.611-3.957,49.917,2.639c1.306,6.595-10.332,33.636-24.958,32.976
		c-14.625-0.659-33.092-13.943-33.092-13.943L803.79,1134.832z"/>
	<path style="fill:#F37168;" d="M612.41,867.883c-27.936,6.998-30.668,52.445-14.839,114.77
		c15.829,62.325,101.896,128.606,148.722,151.002c22.462,10.742,58.038,28.058,58.038,28.058l12.861-28.058
		c0,0-106.433-73.18-129.391-114.069C664.842,978.696,640.109,860.945,612.41,867.883z"/>
	<path style="fill:#F09959;" d="M1016.31,893.559c-18.767-0.762-28.893,30.41-24.806,35.35c4.087,4.94,26.978-14.583,30.468-21.002
		C1025.438,901.532,1031.092,894.159,1016.31,893.559z"/>
	<path style="fill:#F09959;" d="M716.706,784.917c7.557,24.648-2.895,50.361-16.819,53.981
		c-17.053,4.433-36.627-10.629-44.184-35.277c-7.557-24.648-0.027-48.816,16.818-53.981
		C689.367,744.475,709.149,760.269,716.706,784.917z"/>
	<path style="fill:#303C60;" d="M684.627,730.798c0,0-15.828-23.165-53.916-14.261c-38.087,8.904-45.507,37.098-67.271,34.13
		c-21.765-2.968-56.389,2.968-71.228,49.094c-14.839,46.126,31.163,68.963,31.163,68.963s-5.936-6.763,3.462-21.428
		c9.398-14.665,46.991-16.498,65.787-12.018c18.796,4.48,23.248,6.402,47.437,0c24.19-6.402,34.673-41.01,34.673-41.01
		s8.757-1.17,16.851-2.338c-0.318-5.526,1.946-13.602,1.946-13.602l5.139,12.545c1.504-0.234,2.836-0.451,3.881-0.636
		c2.051-0.364,4.018-0.913,5.893-1.581l-9.472-30.571c0,0,9.396,13.893,13.337,28.969c9.601-4.539,15.852-11.656,15.852-11.656
		S718.263,721.977,684.627,730.798z"/>
</g>
</svg>
